<?xml version="1.0" encoding="UTF-8"?>
<svg id="Layer_2" data-name="Layer 2" xmlns="http://www.w3.org/2000/svg" viewBox="0 0 1151.78 703.64">
  <defs>
    <style>
      .cls-1 {
        fill: #fff;
      }
    </style>
  </defs>
  <g id="Layer_1-2" data-name="Layer 1">
    <g id="Layer_3" data-name="Layer 3">
      <g id="Layer_3-2" data-name="Layer 3-2">
        <g>
          <path class="cls-1" d="M6.07,177.39h61.99c.2-1.67.53-3,.53-4.33,0-25.53-.07-51,.13-76.53,0-5-1.67-6.47-6.53-6.47-18.67.2-37.4.07-56.13-.4h63.39c-1.33-7.73-1.93-15-3.93-21.8-2.27-7.93-8.87-10.93-16.73-12-14.8-2-29.53-4.4-44.53-5.8h26.93c.27-5.6.53-10.87.8-16.53h113.66c.27,5.27.47,10.53.73,16.13h59.73v-16.2c3-.13,5.27-.4,7.53-.4,25.53,0,51.13.13,76.66-.13,4.67,0,7.73.93,9,5.6,2.67,9.87,9.07,12.13,19,11.8,24.8-.8,49.66-.27,75.19-.27.27-5.73.47-11,.73-16.6h99.52v16.6h8.13c49.73,0,99.39-.13,149.12.13,6.07,0,9.27-1.6,10-7.6.93-7.6,4.87-10.73,12.8-9.73,6.07.73,12.33.53,18.47,0,5.27-.47,7.47,1.6,8.8,6.47,3,10.73,3.27,10.67,14,10.67,66.26,0,132.52,0,198.85.13,6,0,10.87-1.53,15.8-4.73,37.73-24.73,85.46-23.8,122.19,2.13,7.93,5.6,16.07,3.33,19.27-5.53,3.33-9.4,5.6-10.93,15.4-8.8,1.73.4,3.6,3.67,4.13,5.87,2.53,10.8,2.4,10.87,13.47,10.87,14.67,0,29.26,0,43.93.93h-54.66c2.53,12.8,4.73,25,7.67,37,.4,1.6,4.27,3.27,6.6,3.33,13.27.33,26.53.13,39.73.67h-45.73c2.87,13.93,5.47,27.2,8.6,40.4.27,1.27,3.6,2.53,5.53,2.6,11.6.27,23.13.13,34.73,1h-38.86c-.27,3.53.47,8.27-.93,9.07-5.33,2.87-11.27,4.67-17.2,6.2-.8.2-3.2-3.13-3.73-5.13-2.13-8.67-7.4-10.53-16-10.47-45,.47-89.93.2-134.92.2h-8.4c2.87,8.4,7.47,14.53,14.2,17.8,16.87,8.27,34.13,15.67,51.33,23.13,2.47,1.07,5.53.8,8.4.87,48.26,0,96.53,0,144.79.8h-144.12c-.13.47-.27,1-.4,1.47,5.47,2.07,10.93,4.27,16.47,6.13,24.93,8.4,49,18.6,70.19,34.6,2.4,1.8,6.07,2.53,9.2,2.6,15.13.27,30.26.13,45.46.67h-50.53c11.07,11.2,18.27,23.06,23,36.53.4,1.2,3.47,2.13,5.27,2.13,8,.2,16.07.07,24.13.87h-27.46c1.27,12.47,2.47,24.46,3.73,37.13h24.86v1.07h-24.86c-3.13,12-6.2,23.66-9.47,35.93h33v1.07c-9.53,0-19.07.2-28.53-.07-4.27-.13-6.4,1.4-9,4.93-9.67,13-20,25.4-29.86,37.73h67.13v1.4c-21.46,0-42.86-.27-64.33.2-5.13.13-10.67,1.67-15.2,4.07-17.33,9.13-35.66,12.87-55.13,13-20.8.2-40.06-4.4-58-15.13-2.8-1.67-6.67-1.87-10.07-2.07-5.67-.33-11.4.13-17.07-.13-6.33-.33-11-.07-12.67,8.07-1.27,6.53-7.93,2.67-12.13,3-1.47.13-3.27-3.2-4.8-5.07s-2.8-5.67-4.27-5.67c-21.73-.4-43.46-.27-65.59-.27-.27,3.8-.47,7-.73,10.8h-105.12c-.2-3.27-.47-6.47-.73-10.27h-97.99c-.2,3.33-.47,6.6-.67,10.27h-89.59c-.2-3.4-.4-6.6-.67-10.33h-75.33c-.2,3.47-.4,6.73-.67,10.8-7.67,0-15.2.4-22.6-.27-1.93-.2-4-3.27-5.33-5.47-1.87-3.07-3-5.8-7.73-5.73-36.93.27-73.86.13-110.79.2-.93,0-1.87.2-3.27.33-.33,3.47-.6,6.87-.93,10.6h-99.26c-.33-3.4-.6-6.8-.93-10.53h-59.39c-.27,3.4-.47,6.6-.73,10.4H32.06c-.2-3.27-.47-6.47-.73-10.47H5.67v-1.33h25.66c.27-3.27.47-6,.73-9.33,10.93-1.4,24.26,3,31.2-8.53,4.07-6.8,4.67-15.73,7.07-24.8H5.8v-1.13h62.33v-73.93H5.6v-1.4h62.99v-36.46c0-5-3.8-3.93-6.6-4-18.67-.07-37.33,0-56-.4h62.13v-43H5.67c.13-.4.27-.87.33-1.27l.07.13v-.02ZM1066.91,262.31c-3.47-2.67-5.07-4.4-7.07-5.4-11.8-5.93-23.33-12.53-35.53-17.27-21.06-8.2-42.66-15.07-63.86-22.93-19.66-7.33-37.93-17.13-52-33.26-3.27-3.8-6.47-5.2-11.4-5.2-48.26.2-96.59.13-144.85.13h-7.8c0,1.73-.2,2.67,0,3.53,7.73,25.4,15.73,50.73,23.2,76.13,1.47,4.87,4.33,4.67,8,4.67h44c14.93,0,29.86-.87,44.73.27,14.33,1.07,28.4-1.27,42.73-.87,50.6,1.53,101.26.6,151.92.6,1.87,0,3.73-.13,7.93-.33v-.07h0ZM1027.45,91.53s-518.89-1.6-518.89-1.4c-14.67,0-29.33.2-44-.07-5.33-.07-7.73,1.33-7.53,7.13.4,10.6.33,21.26,0,31.86-.13,5.07,1.8,6.4,6.6,6.4,54.2-.13,108.39-.13,162.65,0,4.53,0,6.67-1.4,8-5.93,5.93-20.06,12.27-40.06,18.47-60.06,1.87-5.93,3.67-11.87,5.6-18-1.67-.4-2.33-.67-3.07-.67h-156.25c-1.2,0-3.13-.2-3.4.33-2.93,5.73-8.33,3.67-12.87,4.2-14.4,1.67-19.2,5.6-22.8,19.93-1.13,4.47-1.53,9.13-2.4,14.33,17.6,0,553.22,1.93,569.95,1.93h-.07v.02ZM886.99,135.39c-2.93-34.06,7.07-61.99,34-84.13h-216.12c.67,2.67,1.13,4.67,1.73,6.67,7.13,23.33,14.53,46.6,21.2,70.06,1.73,6.07,4.6,7.53,10.47,7.47,40.46-.2,80.86-.13,121.32-.13h27.4v.07h0ZM618.81,178.85h-161.19v42.8c17.73,0,625.75,1.53,642.95,1.53-15.53.33-621.81-1.33-637.35-1.07-2,0-5.73,1.87-5.73,3-.4,12.4-.27,24.8-.27,37.53,44.6,0,88.06,0,131.59-.2,1.87,0,4.8-2.67,5.47-4.67,4.47-13.13,8.47-26.4,12.53-39.66,3.93-12.8,7.8-25.53,12.07-39.33l-.07.07h0ZM242.58,177.32c.33-1.13.67-1.8.67-2.47,0-26.46,0-52.86.2-79.33,0-5.4-2.93-5.4-6.73-5.4-40.46,0-80.93.13-121.32-.07-5.47,0-7.53,1.73-7.53,7.27.13,25.46,0,51,0,76.46,0,1.13.4,2.2.67,3.53h134.12-.08ZM108.39,263.71v73.53h134.39v-73.53H108.39ZM1053.64,90.86c-.47-1.33-.53-2.07-1-2.53-2.47-2.53-4.87-5.2-7.47-7.53-24.26-21.6-51.8-30.66-83.66-20-28.66,9.6-44.13,39.06-35.73,66.33,1.73,5.53,4.27,8.2,10.87,8.13,46.6-.33,93.19-.2,139.79-.2,2.27,0,4.53-.2,8.93-.47-7.47-11.73-14.33-22.06-20.8-32.6-4.87-8-11.13-12.07-20.93-10.67-5.33.8-10.8.13-16.27.13v-.67h26.2l.07.07h0ZM592.48,263.91h-134.99v73.19c1,.27,1.67.67,2.33.67,35.26,0,70.53.07,105.79,0,1.53,0,4.13-1,4.47-2.13,3.73-11,7.13-22.13,10.8-33.86-22.2,0-553.02,2.07-573.75,2.07,19.13-.4,548.42-2.33,567.55-2.67,2.6,0,6.73-2.07,7.53-4.2,3.87-10.6,6.8-21.46,10.33-33l-.07-.07h.01ZM402.77,337.5c-.8-2.13-1.13-3.27-1.67-4.27-10.93-21.93-22-43.8-32.73-65.79-1.87-3.8-4.47-4.13-7.93-4.13-28.13.07-56.33,0-84.46,0-2,0-4,.33-5.8.47v73.59h132.59v.13ZM457.49,177.59h64.73c30.26,0,60.59,0,90.86-.07,2.27,0,6.07-.87,6.53-2.2,4.47-12.8,8.33-25.8,12.53-39.26h-174.59v41.53h-.07,0ZM900.72,177.59c-4.47-13.27-8.47-25.73-13.13-37.93-.73-1.87-4.47-3.73-6.87-3.73-47.53-.33-95.13-.4-142.65-.47-2.2,0-4.4.33-7.67.53,3.67,12,7.4,22.86,10.27,33.93,1.47,5.8,3.8,7.8,10,7.8,48.06-.27,96.06-.13,144.12-.13h5.93ZM1084.24,300.51c-.67-12.07-4.13-22.4-11.2-31.73-2.93-3.93-6.33-5.47-11.33-5.47-50.8.2-101.66.13-152.45.13-2.47,0-4.87.27-8.87.47,4.53,10.93,8.67,20.6,12.47,30.4,2.07,5.33,5.47,7.13,11.33,7.13,51.06-.33,102.12-.33,153.19-.47,2.07,0,4.13-.27,6.87-.47h-.01ZM722.34,372.37c6.4-.6,12.07-.93,17.67-1.73,7.4-1.13,11.8-6.2,11.73-13.53,0-3.73-1.2-7.4-1.6-11.13-.6-5.67-3.27-7.47-9.27-7.47-45,.33-89.93.2-134.92.2-10.33,0-10.73.33-12.33,10.73-2.33,15,4.07,22.46,19.2,22.6h9.93c.47,3.67.8,6.6,1.13,9.53h97.79c.27-3.13.47-5.87.67-9v-.2h0ZM108.39,178.65v42.73h134.39v-42.73H108.39ZM425.3,381.37c-6.47-12.87-12.6-24.53-18.13-36.46-2.2-4.73-4.87-6.47-10.2-6.47-40,.2-79.99.13-119.99.13-2.27,0-4.53.27-6.8.33-1.6,9,.13,16.53,5,23.4,7.73,11,20.13,8.33,31.06,10.07.2,3.13.4,5.87.67,8.93h118.39v.07ZM917.26,301.84c6.33,13.33,14.53,24.33,24.13,34.46,1.07,1.13,3.4,1.53,5.2,1.53,41.13.07,82.33.07,123.46,0,1.87,0,4.6-.8,5.47-2.2,6.33-10.13,10-21.06,8.33-33.73h-166.52l-.07-.07h0ZM243.31,262.44c0-11.53-.33-22.33.13-33.13.27-6.07-2-7.47-7.73-7.47-28.8.27-57.66.13-86.46.13-11.8,0-23.6-.13-35.46.13-2,0-5.67,1.93-5.73,3.13-.4,12.33-.27,24.73-.27,37.2h135.52ZM747.74,337.5c-3.2-11.33-6.07-22.2-9.4-32.93-.47-1.47-3.53-3-5.4-3.07-40.2-.2-80.39-.13-120.66,0-1.87,0-4.93,1-5.33,2.2-3.6,11-6.8,22.2-10.2,33.8h150.99ZM242.98,339.17H106.19c3.27,9.47,4.53,18.8,9.27,25.8,7,10.53,19.86,5.6,30.26,7.4.27,3.2.47,5.93.73,8.87h59.59c.27-3.27.53-6,.6-7,9.87-2.73,19.93-3.33,27.2-8.13,8.47-5.53,8.13-16.8,9.13-27v.07h0ZM243.05,89.59c0-4.53.27-8.27,0-12-1.13-14.53-5.67-19.4-20.13-21.6-5.13-.8-12.33,1-15-1.8-4.2-4.4-8.27-3.27-12.53-3.33-11.13-.27-22.26-.73-33.33.07-10.47.73-20.73,3.2-31.13,4.6-9.8,1.33-16.93,6.13-19.8,15.67-1.67,5.73-2,11.87-3,18.4h134.92ZM737.34,300.84c-3.4-12.13-6.47-23.6-10-35-.4-1.2-3.27-2.33-5.07-2.33-33.06-.13-66.19-.13-99.26,0-1.73,0-4.6,1.27-5,2.53-3.6,11.27-6.8,22.73-10.33,34.8h129.66ZM568.49,339.04h-110.72v42.33h74.93c.4-3.33.67-6.27,1-9.07,22.2-1.93,30.4-9.67,34.86-33.2l-.07-.07h0ZM327.04,90.59c-.07,1.2-.4,2-.13,2.53,6.33,12.93,12.53,25.86,19.2,38.6,1,1.87,4.47,3.47,6.87,3.47,23.86.27,47.8,0,71.66.27,5.2,0,6.33-2.07,6.27-6.73-.27-10.4-.4-20.8,0-31.13.27-5.93-1.67-7.67-7.6-7.6-30.06.27-60.06.13-90.13.13-2.07,0-4.13.27-6.2.47h.07,0ZM424.03,90.06c2.07,0,4.13-.33,6-.47,2-13.07-3.6-26.26-12.67-31.06-8.67-4.6-19.6-1.2-27.73-7.73h-83.99c6,12.07,11.47,22.6,16.4,33.4,2.07,4.53,4.93,6,9.87,6M717.61,234.05c-5.33-18.07-10.2-35.2-15.6-52.26-.47-1.6-3.73-3.27-5.67-3.27-15.87-.27-31.73,0-47.6-.2-3.8,0-5.4,1.33-6.4,4.87-2.93,10.4-6.07,20.8-9.13,31.2-1.87,6.4-3.67,12.8-5.67,19.73h89.99l.07-.07h0ZM884.66,300.64c-1.87-12.53-3.6-24.53-5.33-36.6h-109.72c3.2,10.6,6.47,20.4,9.07,30.33,1.4,5.27,4,7,9.47,7,29.8-.27,59.59-.13,89.39-.13,2.07,0,4.13-.33,7.13-.6h-.01ZM793.47,338.97c2.87,20.8,11.73,29.53,34.06,33.86.2,2.67.4,5.4.67,8.53h68.86c-2.2-14.4-4.27-28.2-6.4-42.4h-97.19,0ZM781.27,301.84c2.93,10.07,5.87,19.4,8.4,28.8,1.4,5.27,3.8,7.47,9.8,7.4,26.26-.4,52.46-.2,78.73-.2h12.2c-1.93-12.53-3.67-24.26-5.47-36h-103.66ZM269.64,262.11h95.86c-6.4-12.8-12.27-24.8-18.53-36.6-.87-1.67-3.6-3.33-5.47-3.4-22.46-.2-44.86-.2-67.33,0-1.53,0-4.33,2.4-4.33,3.73-.33,11.93-.2,23.93-.2,36.2v.07h0ZM348.17,135.92c3.67,7.53,6.8,14.27,10.2,20.93,3.4,6.73,5.4,15.93,10.93,19.27,5.8,3.47,15.07,1.33,22.8,1.47,12.67.13,25.33,0,38.13,0v-41.66h-82.06ZM943.52,338.84c22.93,22.06,47.66,34.66,78.19,31.13,21.13-2.47,38.26-12.73,51.53-31.13h-129.72ZM345.1,221.58c-4.27-8.6-7.8-15.93-11.47-23.2-3.27-6.47-5.2-15.53-10.53-18.67-5.67-3.33-14.6-1.2-22.13-1.33-10.27-.13-20.6,0-30.8,0v43.2h74.93ZM323.04,177.39c-6.2-12.47-11.67-23.93-17.6-35.13-1.67-3.07-4.67-5.4-7.07-8.13l-1.4,1.4c1.27-.33,2.6-.6,4.6-1.07-6.53-13.13-13.07-25.66-19-38.4-2.8-6-6.67-7.07-12.27-4.93v86.26h52.8-.07.01ZM430.5,178.85h-61.06c7,14.07,13.47,27.33,20.2,40.53.6,1.2,2.53,2.4,3.93,2.4,12.2.2,24.4.13,36.93.13v-43.06ZM700.87,177.32c-2.2-7.8-4.07-14.53-6.07-21.26-1.93-6.53-2.2-15.6-6.6-18.8-4.73-3.47-13.53-1.67-20.53-1.67-12.93,0-10.2-2.07-14.2,10.47-3.2,10.2-6,20.46-9.07,31.26h56.53-.07.01ZM390.97,222.11c6.87,13.8,13,26.13,19.27,38.4.53,1,2.13,2,3.27,2.07,5.6.2,11.13.07,17.27.07,0-12.87.07-24.86-.13-36.8,0-1.27-2-3.53-3.07-3.6-11.67-.27-23.33-.13-36.6-.13h0ZM688.54,134.92c-5.27-17.73-10.2-34.33-15.13-50.93-.53,0-1.07.07-1.53.13-4.93,16.67-9.87,33.33-15.07,50.8h31.73ZM411.77,263.84c6.07,12.13,11.67,23.46,17.33,34.73.33-.13.73-.27,1.07-.4v-34.33h-18.4ZM918.12,381.3h31c-8.93-7.47-16.67-13.93-25.2-21.06-2.13,7.73-3.93,14.13-5.87,21.06h.07ZM620.35,261.18v.93h104.79v-.93h-104.79ZM271.51,74.39c-.47.13-.87.27-1.33.4v15.2c3-.13,5.4-.27,8.73-.47-2.8-5.73-5.13-10.47-7.47-15.2l.07.07h0Z"/>
          <path class="cls-1" d="M821.4,594.88c3.27-4.2,6.93-8.2,9.6-12.73,1.27-2.2.53-5.53.67-8.33-2.4.73-4.73,1.53-7.27,2.33,5.13-14.07,13.07-26.46,26-35.33,1.53-1.07,3.27-2.13,5-2.53,4.47-1.07,10-4.07,12.87,1.33,3.13,5.93-4,6.4-6.87,8.53-15.4,11.47-27.13,25-27.93,45.26-.07,2.27,1.33,4.53,2.07,6.87,2.2-1.13,5.33-1.6,6.53-3.4,6.93-10.67,13.4-21.6,20-32.46.47-.8.73-1.73,1.27-2.53,2.27-3.47,3.2-10.13,9-7.47,5.27,2.4.07,6.87-.27,10.4-1,11.2-2.93,22.33-2.67,33.46.2,9.8,5.67,11.73,13.67,5.53,7.2-5.6,13.8-12.07,19.93-17.47v6.13c10.4-8.4,11.2-12.93,3.73-17.73,2.27-11.53,4.53-23.13,6.93-34.6.47-2.2,1.13-5.2,2.8-6.27,3.07-2,6.93-2.87,10.47-4.27.87,3.2,2.93,6.67,2.33,9.53-2.2,10.13-5.33,20-8,30-.53,1.87-.6,3.87.33,6.27,5.13-6.4,10.13-12.87,15.4-19.07,2.73-3.2,5.8-6.27,9.13-8.87,7.27-5.8,12.73-4.07,13.93,5,1.07,8.33.67,16.93.73,25.4,0,4.73-.67,9.47-.13,14.13.87,8.27,6.13,10.93,12.8,6.13,5.8-4.27,10.6-9.87,16-15v7.6l2,1c3.33-5.87,7-11.6,9.73-17.73.53-1.13-2.73-4-4.87-6.93,9.53-17.73,23.86-30.93,47-30.6,5.2.07,10.47,2.33,15.47,4.27,1.8.67,2.93,3.33,4.67,5.47-8.07-1.33-15.07-4.07-21.53-3.33-19.07,2.2-41.46,26.73-42.73,45.86-.2,2.67,1.2,7.2,3,7.87,2.87,1.07,7.27.67,9.93-.93,13.07-8,21.53-20.33,29.4-33,1.6-2.6,2.6-5.93,4.87-7.73,2.67-2.07,6.47-3.8,9.67-3.67,1.4,0,3.73,5.07,3.73,7.8.2,31.73-1.33,63.39-14.47,92.93-3.2,7.13-8.33,13.67-13.6,19.6-6.4,7.27-15.53,9.47-24.66,7.27-3.93-.93-7.2-5.33-10.33-8.53-.53-.53.67-3.47,1.8-4.53.47-.47,3.13.33,4.13,1.2,8.13,7.67,14.27,7.93,20.4-1.6,5.67-8.8,11.2-18.47,13.47-28.53,4.07-18.33,5.6-37.13,8.07-55.8.27-1.87-.13-3.73-.27-5.67,0-.4-.47-.73-1.27-1.8-1.93,2.53-3.47,5-5.47,7.07-7,7.33-13.33,15.53-21.33,21.46-12.4,9.27-21.13,5.8-26.4-9.33-4.2,3.6-8.13,7.2-12.33,10.4-5.67,4.4-12.27,7.4-19.13,4.27-6.8-3.13-7.8-10.2-7.8-17.07,0-8,.2-16.07.2-24.06,0-2.47-.4-4.87-.87-9.13-3.4,2.73-6.13,3.93-7.47,6-8.93,13.8-17.6,27.8-26.33,41.8-2.13,3.4-3.8,7.07-6.27,10.2-.87,1.13-3.6,1.8-5,1.33-1.2-.4-2.33-2.8-2.4-4.33-.27-5.4-.13-10.8-.13-17.73-2.73,2.87-4.67,5.33-7,7.33-4.27,3.67-8.4,7.8-13.27,10.4-10,5.4-18.13,1.2-20.53-10-1-4.8-1.53-9.73-2.47-16-2.4,3.07-4.13,5.4-5.93,7.6-2.27,2.73-4.33,5.6-6.87,8.07-4.53,4.4-8.93,10.07-16.33,7.67-6.8-2.2-6.6-9.13-8.07-14.67l-.13.2-.33-.2h0Z"/>
          <path class="cls-1" d="M821.53,594.68c-8.33,6.73-16,14.8-25.26,19.93-10.27,5.73-17.2,1.33-17.4-10.6-.27-16.93,1-33.86,1.53-50.8.07-2.93,0-5.87,0-8.8-.87-.47-1.67-.93-2.53-1.4-3.27,3.33-7.27,6.13-9.67,10-10.2,16.47-19.93,33.13-29.73,49.8-1.67,2.87-2.53,6.33-4.67,8.67-2.47,2.6-6.07,4.2-9.2,6.27-1.47-3.2-3.8-6.27-4.27-9.67-.73-5.2-.2-10.6-.2-14.8-7.87,5.33-15.93,11.87-25,16.6-5.6,2.93-12.6,3.93-19.07,4.4-10,.73-18.6-6.13-22.2-16.53-6.4-18.2.53-44,15.73-56.06,3.87-3.07,9-5.4,13.93-6.33,6.07-1.13,12.47-.13,16.13,6.13,3.13,5.27,2.2,15.87-1.73,20.13-1.27,1.33-3.27,2-6.87,4.13,1.33-5.47,2.73-8.8,2.73-12.07,0-3.47-1.33-6.93-2.07-10.47-3.47.87-7.73.73-10.33,2.8-10.2,8-17.53,35.46-13.4,47.8,2.67,7.87,7.07,11.07,15.33,10.8,13.6-.53,23.4-7.87,31.6-17.93,1.87-2.27,3.53-4.73,6.13-8.33.27,4.4.4,7.07.6,9.67.6.2,1.2.47,1.8.67,2.13-4.47,4.47-8.8,6.13-13.47.2-.67-3.07-2.53-5.53-4.47,3.73-33.33,6.6-67.93,16.53-101.26,2-6.67,5.33-13.13,8.93-19.13,2.93-4.87,7.67-9.4,14-7.4,6.27,2,7.93,8.33,7.33,14-1.6,15.13-2.4,30.73-6.67,45.2-4.87,16.33-12.4,32.06-20.26,47.33-6.2,11.93-7.4,24.46-8.4,37.53,1.13-1.93,2.2-4,3.47-5.87,7.2-11.07,14.33-22.2,21.73-33.06,2.27-3.27,5.27-6.13,8.27-8.73,4.67-4.07,10.07-8.33,16.53-5.33,6.4,2.93,7.2,9.6,6.8,15.93-.87,14.8-2.33,29.6-2.93,44.46-.13,3.67,1.8,7.33,2.8,11.07,4.13-1.13,9-1.27,12.2-3.67,5.6-4.13,10.27-9.67,15.73-15.07.47,3,.87,5.6,1.27,8.2l.13-.27h.03ZM738.54,539.02c.6.13,1.13.2,1.73.33.73-1.13,1.8-2.13,2.2-3.4,6.93-19.2,14.33-38.33,20.53-57.8,2.13-6.8,1.6-14.47,1.93-21.73,0-1.47-1.6-3-2.53-4.47-1.53,1-3.2,1.73-4.47,3-1,.93-1.6,2.33-2.13,3.67-10.27,25.86-13.07,53.33-17.33,80.46l.07-.07h0Z"/>
          <path class="cls-1" d="M0,0h9.73c377.03,0,754,0,1131.04.07,3.2,0,6.4,1.27,9.67,2-3.2,1-6.4,2.87-9.6,2.87-377.03.13-754.07.13-1131.1,0-3.21,0-8.14,2.26-9.74-4.94Z"/>
          <path class="cls-1" d="M1.67,422.56h9.07c377.23,0,754.54,0,1131.77.07,3.07,0,6.2,1.47,9.27,2.27-3.07.87-6.13,2.53-9.2,2.53-377.23.13-754.54.13-1131.77,0-3.13,0-8.13,2.2-9.2-4.93l.07.07h-.01Z"/>
          <path class="cls-1" d="M40.8,562.09c3.73-4.07,7.13-8.2,11.07-11.73,4.33-3.93,8.73-8.07,13.8-10.93,10.27-5.67,20.93-.47,22,11.2,2,21.86-4.47,40.8-22.66,56.46,22.6.93,35.33-12.27,46.8-28.93.2,3.67.33,6.33.53,10.4,3.93-5.53,9.13-9.13,4-15.53-.47-.6-.73-1.87-.53-2.53,4.4-12.53,10.33-24.26,23.33-29.6,12.53-5.13,22.4.8,24.73,14.93,2.8,16.93-.27,32.93-11.6,46.53-1.8,2.13-3.93,4.13-6.27,5.73-16.47,11.53-29.66,6.07-33.2-13.73-.27-1.33-.47-2.67-.93-5.4-20.66,25.6-45,31.6-74.66,16.4-1.13,10.13-1.87,20.53-3.47,30.8-2.6,16.73-5.4,33.46-8.8,50.06-.93,4.67-3.67,9.27-6.67,13.07-5.53,7-13.67,5.33-15.87-3.47-1.53-6.27-2.4-13.27-1.2-19.53,4.2-22.2,8-44.6,14.67-66.06,6-19.47,8-39.13,10-59,.07-.73-.07-1.47.07-2.13.93-3.93.27-10.27,5.8-9.47,3.4.53,7.13,5.53,8.67,9.4,1.47,3.6.33,8.27.33,13.07h.07,0ZM38.6,597.82c6.47,3.33,13.07,5.33,18.73-.13,12.8-12.33,19.4-27.73,19.53-45.46.07-7.67-5.27-10.4-11.4-5.73-16.73,12.73-29.73,27.8-26.86,51.33h0ZM158.12,568.42c-.4-2.2-.67-5.8-1.73-9.13-2.67-8.73-11.27-11.33-17.47-4.8-10.47,11-14.8,24.6-13.13,39.53.4,3.93,4.07,9.53,7.4,10.6,3.33,1.07,9-1.67,12.2-4.4,9.2-7.87,11.6-19,12.73-31.8ZM8.53,693.61c1.2.2,2.47.4,3.67.6,8.53-26.73,9.27-54.73,10.93-82.59-9,26.66-16.53,53.6-14.6,81.99Z"/>
          <path class="cls-1" d="M533.89,590.42c-3.53,4.07-6.93,8.27-10.67,12.2-3.27,3.4-6.67,6.73-10.4,9.53-13.67,10-24.46,7.07-30.66-8.73-5.6-14.2-7.33-29.26-6.67-44.46.47-10.53,1.4-21.06,2.07-30.53-2.73-2.2-4.93-3.93-7.2-5.67,2.07-1.73,4.33-3.4,6.2-5.33,1.8-1.93,3.73-3.93,4.73-6.33,4.13-9.73,7.8-19.66,12.07-29.33,1.47-3.4,4.07-6.33,6.33-9.33,3.67-4.73,8.4-8.6,14.53-6.6,5.87,1.93,6,8.13,5.8,13.27-.47,10.73-1.53,21.46-2.4,32.66,4.13-.33,8.47-.67,12.8-1,.4.67.8,1.4,1.27,2.07-2.2,1.53-4.2,4-6.6,4.4-8.4,1.27-12.27,5.87-15.33,13.8-4.27,10.87-11.2,20.66-16.67,31.06-1.67,3.2-3.33,7-3.07,10.4.73,8.87,1.8,17.87,4.2,26.33,2.6,9.33,8.33,11.47,16,5.33,7.47-5.93,13.4-13.73,20-20.73.93-1,1.6-2.27,3.67-5.33v12.53l.13-.2h-.13ZM491.29,513.29c.8.6,1.53,1.27,2.33,1.87,3.67-.53,7.4-.6,10.93-1.67,2.07-.67,4.87-2.53,5.2-4.33,1.93-9.13,3.4-18.4,4.4-27.73.27-2.27-1.67-4.8-2.53-7.2-2.13,1.6-5.33,2.73-6.27,4.87-5,11.27-9.4,22.73-14.07,34.13v.07h0ZM487.96,553.42l2.93.87c5-10,10-20.06,15-30.06-.67-.53-1.33-1.13-2-1.67-4.4,2.13-11.6-1.73-13.13,5.93-1.67,8.13-1.93,16.6-2.8,24.93Z"/>
          <path class="cls-1" d="M229.98,575.02c-5.73,6.53-10.4,12.33-15.67,17.6-5.33,5.33-10.8,10.6-17,14.87-8.2,5.67-15.87,1.93-16.47-7.93-1.07-18.93,5.6-36.06,14.2-52.53.93-1.87,4.07-3.2,6.4-3.6,6.53-1.07,7.93,1.27,5.73,7.47-4.2,11.73-8.2,23.53-11.87,35.4-1.13,3.67-.67,7.73-.93,11.67.6.47,1.2.87,1.8,1.33,3.27-2.33,7.07-4.2,9.6-7.13,7.4-8.53,14.4-17.47,21.4-26.33,1.47-1.87,2.13-4.47,3.87-5.87,2.2-1.73,5.2-3.6,7.67-3.4,1.67.13,3.93,3.67,4.33,5.93,2,11.33,3.07,22.86,5.4,34.13.87,4.13,4.4,7.67,6.67,11.53,3-3.6,7.73-6.87,8.67-10.93,2.53-11.4,3.87-23.13,4.87-34.8.27-3.4-2.67-6.93-3.2-10.53-.33-2.33.93-4.93,1.47-7.4,2.07,1.4,5.47,2.47,5.87,4.2,5.07,22.2,3.67,43.73-9.67,62.93-7.33,10.53-22.33,7.33-26.93-5.13-1.8-4.8-2.87-9.93-3.87-15-1-5-1.47-10.13-2.33-16.53v.07-.02Z"/>
          <path class="cls-1" d="M369.1,558.75c-2.4,5.6-4.67,10.8-7,16.27-1.8-1.13-3.4-2.13-5.33-3.33,1.07-2.8,2.73-5.53,3-8.47.4-4.47.8-9.4-.67-13.47-3.67-10.27-2.27-19.53,3.47-28.33,1.07-1.67,3.73-3.2,5.6-3.13,1.33,0,3.27,2.73,3.67,4.47.93,4.07,1.73,8.4,1.4,12.53-.53,5.8,1.67,9.53,6.53,12.13.8.47,1.6,1,2.4,1.53,13.27,8.6,15.13,13.4,12.13,29-1.47,7.6-2.6,15.33-3.33,23.06-.2,2.47.93,6.73,2.53,7.4,2.27.87,6.4,0,8.2-1.8,7.8-7.53,14.93-15.73,22.46-23.46,1.67-1.73,4.2-2.6,6.33-3.87-.4,2.33,0,5.47-1.4,6.93-8.33,9.2-16.33,19.13-25.93,26.8-10.73,8.6-20.53,3.93-21.93-9.67-1-9.53-.33-19.27-.33-28.93s-2.07-12.27-11.8-15.8v.13h0Z"/>
          <path class="cls-1" d="M1148.17,573.75c-1.67,21.8-35.46,44.06-54.73,38.13-8.27-2.53-12.67-8.93-13.53-17.33-1.93-20.4,4.87-37.93,18.33-53.13.6-.73,1.33-1.33,2.07-1.93,6.2-5.13,14.47-6.4,18.93-2.87,4.6,3.6,5.27,10.13,1.4,18.2-5.13,10.67-12.53,19.53-22.86,25.4-7.2,4.07-4.6,10.2-4.07,15.6.47,5.13,4.07,8.2,9.6,8.73,12.27,1.13,21.4-4.8,29.2-13.13,3.87-4.13,6.73-9.07,10.33-13.47,1.4-1.73,3.53-2.87,5.27-4.2h.07,0ZM1095.44,574.15c9.67-6.13,17.4-13.6,19.86-25.06.4-1.8-1.27-4.07-2-6.13-1.87.67-4.4.8-5.53,2.07-7.13,8.33-10.13,18.53-12.33,29.13h0Z"/>
          <path class="cls-1" d="M342.04,592.75c1.33,1.47,2.47,2.73,3.87,4.27-9.87,9.2-20.93,15.4-34.66,15.53-11.53.13-19.73-6.27-20.86-17.67-2.13-21.46,5.2-39.8,20.2-55.06,1.6-1.6,3.87-3.33,6-3.53,4.4-.33,9.67-1,13.27.93,4.8,2.6,4.67,8.4,2.93,13.33-4.4,12.8-12.73,22.66-24.2,29.46-7.47,4.4-4.93,10.53-4.33,16.13.6,5.4,4.8,8.27,10.53,8.6,11,.6,19.4-4.73,27.26-11.93v-.07h-.01ZM303.97,573.15c.93.53,1.87,1.07,2.8,1.6,8.33-6.6,16.13-13.67,18.8-24.73.47-2.07-1-4.67-1.6-7-2.2.93-5.53,1.27-6.47,2.93-4.87,8.87-9.07,18.07-13.53,27.2h0Z"/>
          <path class="cls-1" d="M533.82,590.62c2.2-3.6,4.6-7.07,6.53-10.87.73-1.47,1-4.6.2-5.13-4.8-3.13-2.4-6.8-.53-9.6,4.6-7.07,8.8-14.73,14.87-20.33,12.07-11.13,28.33-5.53,31.06,10.4,2.73,15.8.8,31.33-9.47,44.26-4.07,5.13-9.87,9.53-15.8,12.47-11.2,5.53-22-.47-24.8-12.6-.67-3-1.27-6-1.93-8.93l-.13.27v.07h0ZM580.02,569.95c-.13-2.47.47-4.93-.47-6.67-2.2-4.13-4.2-9.6-7.8-11.47-5.4-2.8-10.33,1.2-13.67,5.93-7.8,10.93-12,23.06-10,36.46.6,4,4,9.27,7.4,10.53,3,1.13,8.6-1.53,11.67-4.13,9.47-8,12.13-19.2,12.87-30.66h0Z"/>
        </g>
      </g>
    </g>
  </g>
</svg>