<?xml version="1.0" encoding="UTF-8"?>
<svg id="Layer_2" data-name="Layer 2" xmlns="http://www.w3.org/2000/svg" viewBox="0 0 1642.67 1000.56">
  <defs>
    <style>
      .cls-1 {
        fill: #fff;
      }
    </style>
  </defs>
  <g id="Layer_1-2" data-name="Layer 1">
    <g id="Layer_3" data-name="Layer 3">
      <g id="Layer_3-2" data-name="Layer 3-2">
        <g>
          <path class="cls-1" d="M649.13,1000.18c-28.48-5.64-57.46-9.5-85.29-17.44-33.73-9.5-66.57-22.57-99.79-33.86-9.74-3.33-12.95-9.5-12.83-20.01.51-62.21,1.03-124.29-.26-186.5-.38-16.29-7.05-32.58-11.42-48.61-.51-2.06-5.01-3.84-7.82-4.23-70.55-11.42-140.96-22.7-211.64-33.47-5.9-.89-14.23-.38-18.21,3.21-25.4,22.19-83.63,10-97.48-30.66-3.6-10.51-8.85-13.6-19.36-12.69-14.37,1.28-27.71-.51-39.25-11.28-4.61-4.36-13.08-4.36-19.62-6.79C7.96,590.76-.12,581.02,0,566.65c.26-15.78,6.41-22.83,26.68-29.63,3.98-1.28,7.82-2.69,12.83-4.36-2.44-8.73-4.87-16.67-6.79-24.88-7.18-30.52,5.39-55.66,34.24-66.82,41.05-16.03,83.5-14.37,126.6-10.77,32.58,2.69,65.54.51,98.38.51,5.52-29.24,20.52-36.3,51.31-23.08,8.08-11.03,15.64-22.83,24.88-33.35,4.87-5.52,12.31-11.42,19.12-12.19,28.48-3.07,57.07-4.49,85.67-6.29,5.52-.38,11.03,0,15.01,0,3.84-30.78,5.39-60.41,11.42-89.15,14.49-70.41,51.05-128.26,102.22-178.29,20.78-20.27,38.22-44.12,65.54-56.43,11.8-5.39,24.37-9.5,36.94-12.31,29.75-6.41,59.64-13.34,89.79-17.06,76.44-9.5,147.37,7.7,213.56,46.81,6.02,3.6,13.98,3.72,20.65,6.41,8.47,3.33,19.88,5.39,24.24,11.93,37.71,56.18,86.96,105.94,103.76,174.31,7.82,31.81,12.31,64.39,18.6,98,17.96-4.1,37.83-9.5,57.98-13.08,30.4-5.39,60.93-11.42,91.57-13.72,41.17-3.21,82.72-3.6,124.03-4.49,28.74-.64,53.74,9.24,77.47,25.79,10.65,7.44,17.7,14.23,22.57,26.68,5.01,12.57,16.29,22.7,24.5,33.47,1.8-.26,2.83,0,3.6-.51,8.47-4.49,16.93-13.46,26.68-5.13,10.65,8.98,11.68,21.04,8.73,34.88-3.6,16.67-6.55,33.99-6.41,51.05.12,15.78,5.39,31.43,7.18,47.33,2.83,24.76,4.75,49.64,6.67,74.52.38,5.52-.77,11.16-1.03,13.72,8.98,12.45,16.8,23.08,24.5,33.86v11.28c-7.18,22.57-24.11,31.93-46.04,35.02-19.5,2.69-38.99,5.39-58.36,8.85-5.52,1.03-11.8,3.21-15.9,6.79-20.52,17.96-42.46,16.8-65.93,7.44-6.55-2.57-14.11-3.84-21.16-3.46-40.79,2.18-81.45,4.87-122.11,7.82-4.36.26-9.88,2.44-12.69,5.64-11.28,12.69-24.88,15.64-40.92,12.57-19.5-3.72-32.84-15.64-42.97-31.69-5.64-8.85-12.69-10-23.34-7.44,8.08,8.08,18.35,10.51,18.21,24.37-1.03,69.64-.64,139.29-.26,208.93,0,8.85-2.69,14.11-10.9,17.06-33.61,11.93-66.69,25.14-100.69,35.41-26.29,7.82-53.74,11.8-80.68,17.44h-8.47c5.52-5.64,10.77-11.54,16.67-16.67,21.16-18.47,42.58-36.56,64.39-55.28-4.75-6.29-8.59-11.54-12.57-16.67-4.1-5.52-8.34-10.9-13.08-17.06-11.8,27.97-13.72,29.12-42.84,29.12-128.78,0-257.68-.12-386.46.12-19.12,0-37.71,1.28-43.48-25.4-8.59,11.68-15.01,20.27-22.07,29.89,14.49,12.31,28.6,23.99,42.46,35.91,13.85,11.93,27.57,24.11,41.43,36.17h-5.64l-.12-.38h-.03ZM127.37,605.39c-8.21-1.92-16.55-3.72-24.76-5.64-.38,1.8-.77,3.6-1.28,5.52,7.31,2.44,14.62,5.01,22.07,6.79.64.12,2.44-4.36,3.6-6.67,2.83-.77,7.56-1.03,8.21-2.57,2.06-5.9,2.57-12.45,4.1-20.52-7.56-1.15-14.23-2.06-20.78-3.07,12.06-8.08-4.49-9.5-3.46-15.01,8.08,4.75,16.03,9.5,24.11,14.23.51-.77.89-1.67,1.41-2.44-3.72-6.67-7.44-13.34-11.16-20.01,6.16,4.87,11.54,11.8,18.47,14.11,12.83,4.23,26.42,5.9,39.76,8.21,1.92.38,4.36-2.06,6.55-3.07,11.68,3.98,23.47,7.95,35.14,11.8,30.66,3.84,61.44,7.95,92.1,11.42,8.21.89,16.67-.26,25.02-.38-.12-1.28-.38-2.57-.51-3.84-8.85-.38-17.7-.51-26.42-1.41-25.14-2.57-50.28-5.78-75.55-8.21-4.75-.38-9.74,1.67-14.62,2.57,24.88-20.65,18.47-44.5,5.01-72.09,32.7,7.31,62.85,13.46,92.73,21.16,13.6,3.46,27.97,7.44,35.91,22.45.26-6.02-.64-11.68-3.46-15.91-2.95-4.49-7.7-7.7-11.68-11.42,12.31,3.98,20.39,10.9,18.86,25.4-.26,2.83,2.31,5.9,3.46,8.73-40.14-7.05-80.29-14.23-120.05-21.3-3.72,13.08.51,16.93,9.11,18.09,32.45,4.36,64.9,8.85,97.35,13.6,9.24,1.41,13.21-1.92,13.21-10.9,8.34,6.29,6.29,11.03-1.92,15.14-1.67,26.03-3.46,52.08-5.26,79.91,7.18-.77,12.45-1.41,17.83-1.92-3.84-2.57-7.05-4.61-10.13-6.55,44.12,3.72,88.38,8.21,131.85-4.23,3.33-.89,7.05-7.7,6.93-11.42-.26-3.07-5.78-7.95-9.36-8.47-34.24-4.87-68.62-8.59-102.73-13.46-18.6-2.57-24.63,1.03-26.94,20.01-.77,5.9.38,12.06.64,18.09-.64-9.74-5.01-21.81-1.03-28.98,9.11-16.03,5.39-29.12-2.06-43.09,3.6,5.01,8.98,9.62,10.65,15.26,4.61,15.64,25.79,23.08,40.66,13.21.51-.26,1.03-.64,1.54-.89,3.72,2.83,7.05,7.44,11.16,8.08,27.19,3.84,54.51,6.67,80.29,9.74,8.34-24.88,16.29-48.48,24.37-72.72-10,1.54-20.39,3.07-30.91,4.75-.12-1.41-.26-2.83-.51-4.1,16.8-2.69,33.61-5.52,50.41-8.21-.12-1.15-.26-2.18-.38-3.33-16.29,1.92-32.58,3.84-48.87,5.78-.12-1.15-.38-2.18-.51-3.33,15.26-2.95,30.52-5.78,46.04-8.73-8.98-16.41-17.96-32.32-26.29-48.61-11.93-23.08-12.83-24.88-38.86-18.09-34.38,8.85-68.11,20.65-102.35,30.27-12.45,3.46-25.91,7.31-38.36,6.02-58.87-5.9-117.62-13.34-176.23-21.04-7.7-1.03-14.88-7.05-22.19-10.77,7.44-4.87,14.88-9.88,22.31-14.75.12,0,.77.51,1.67,1.15-6.41,3.6-12.57,7.05-18.73,10.51,0,1.28.12,2.57.26,3.98,7.31,2.06,14.49,5.13,22.07,6.02,59.26,6.93,118.51,13.46,177.77,19.75,6.79.77,14.62,1.03,20.78-1.54,41.69-16.93,83.89-31.55,129.29-37.19-7.7-3.33-15.52-5.64-23.47-6.93-49.38-8.47-98.5-15.26-146.1,8.47-12.06,6.02-25.52,9.36-38.48,13.72-2.57.89-5.39.89-8.08,1.28-.38-1.28-.77-2.57-1.15-3.84,26.03-9.5,52.08-19.12,78.88-28.86-11.68-2.83-22.45-5.39-33.09-7.95,36.04,2.31,72.21,3.84,108.12,7.05,20.78,1.8,41.17,6.29,61.82,9.5.26-1.67.64-3.21.89-4.87-25.65-3.72-51.43-7.44-77.08-11.03v-2.57c9.62-3.07,19.36-6.02,32.45-10.13-5.9,0-8.34-.51-10.51,0-33.86,8.98-68.23,12.57-103.13,10.65-4.1-.26-8.34.89-12.57,1.28-11.03-.12-22.07-.77-33.09-.38-39.89,1.41-79.77,2.83-119.67,4.75-29.37,1.41-58.61,3.84-91.57,6.02,17.18,13.98,22.31,30.01,20.13,48.1-2.57,20.65-18.21,28.74-36.04,33.22,5.78,5.13,10.39,9.11,14.75,13.34,5.39,5.26,10.65,10.77,15.91,16.17-14.37-.26-20.39,4.75-20.52,17.96,0,5.52,1.15,11.16,1.92,16.67-1.67-8.34-3.07-16.67-4.87-24.88-.77-3.33-1.92-6.67-2.83-10-1.67.38-3.46.77-5.13,1.15-1.03,13.21-2.06,26.42-2.95,39.51,9.58,1.28,14.79-.73,15.64-6.02,17.83,7.44,20.52,6.55,30.91-9.36-.51,3.98-1.03,7.82-1.28,9.88,5.9,4.87,10.51,8.59,15.14,12.45l-.26-.12-.09-.09ZM1564.55,426.07l-.38-.51c-5.26-8.08-10.77-16.03-15.78-24.37-6.41-10.77-12.31-22.07-18.86-32.84-2.06-3.33-5.64-8.21-8.47-8.21-23.47,0-46.81.89-70.29,1.54-4.36-.89-8.85-2.69-13.21-2.69-29.37-.26-58.61,0-87.99,0,52.97-3.6,105.82-5.26,158.79-6.29,7.7-.12,15.52,2.31,23.22,3.6-3.21-3.84-8.08-6.67-13.08-8.73-17.7-6.79-35.14-17.95-53.23-19.24-76.7-5.52-153.66-8.73-229.33,11.93-19.36,5.26-39.37,8.73-59,13.08l.38,1.8c9.11-.51,18.21-.89,27.45-1.41v4.1c-5.9.51-11.8,1.15-21.42,2.06,6.79,1.54,9.88,2.18,13.98,3.07-3.21,5.52-5.78,10-8.47,14.49,9.62,2.31,6.67,7.31,1.92,12.83-2.44-10.65-10.26-4.61-15.91-4.87-.38,0-.89,1.41-1.54,2.44,3.84,1.03,7.56,2.06,10.77,2.95-2.18,22.57-4.75,44.12-6.29,65.67-.89,12.45-5.39,19.24-18.73,18.98-10.13-.12-18.6,2.83-18.98,14.88h140.83c-2.69,1.8-5.39,2.06-8.21,2.57-30.01,4.87-61.31-5.13-90.81,7.31-.51.26-1.67-1.8-2.83-2.31-15.91-8.47-44.64-.26-52.2,15.52-2.57,5.26-3.6,11.68-3.6,17.44.26,30.01,1.15,60.03,1.8,90.04-9.74-28.98-2.57-59.64-7.56-88.38-23.73,26.42-47.33,52.71-70.55,78.5,3.84,4.23,8.47,10.65,14.37,15.78,3.6,3.21,8.85,5.39,13.6,6.16,17.57,2.95,35.27,5.13,52.97,7.7,18.73,2.69,37.59,5.52,56.81,8.34-8.21-47.59-9.11-93.37-6.93-139.29,1.15,0,2.31,0,3.46-.12.77,3.98,1.54,7.95,2.57,12.45h20.13c0,.89,0,1.92.12,2.83-7.05.89-13.98,1.92-21.16,2.83v82.98h1.41c1.28-6.55,2.69-13.34,4.23-21.16,19.62,1.28,38.36,3.33,56.95,3.6,11.54,0,17.57,4.1,19.12,15.4.38,3.21,1.92,6.29,2.83,9.5,10,31.46,31.6,46.77,64.77,45.92-11.16.64-22.31,1.67-33.47,1.8-11.03.12-15.14,5.39-14.37,15.91.77,10.9,3.84,17.32,17.32,18.09,49.38,2.69,98.38,0,147.37-6.93,50.14-7.05,100.3-13.72,150.45-20.13,12.19-1.54,19.75-7.7,24.37-18.21,4.49-10.13.26-18.98-7.31-24.88-2.83-2.18-10,1.41-15.26,2.44,7.95-16.67,3.6-40.66-7.7-47.84,13.6-5.13,14.11-16.55,11.8-28.48-2.18-10.9-5.52-21.93-22.19-18.09-.77,6.02-2.31,12.45-2.44,18.86,0,6.41,1.28,12.69,2.31,21.81-12.69-26.17-5.78-47.19,17.96-47.07-10-9.74-17.83-17.18-26.29-25.52-6.55,15.52-12.95,30.66-19.5,45.79-3.98,9.11-8.34,18.09-12.45,27.06l.26.26c11.68-39.37,23.08-78.76,49.25-111.2,1.41.51,2.69.89,4.1,1.41-1.03-5.9-1.92-11.8-3.07-18.21-1.67,2.57-3.07,4.49-3.98,5.78-5.13-8.21-10.13-15.91-15.01-23.6-1.8-.77-3.72-1.67-5.52-2.44-1.67-1.54-3.33-3.07-5.01-4.61l.64.26.04-.09ZM64.27,471.6c-6.16,4.23-12.45,8.47-18.21,12.45,3.33,25.65,12.06,32.58,36.04,28.86-9.36,1.8-18.73,3.46-27.45,5.13,3.07,6.16,13.98,7.82,26.8,2.06,17.83-7.95,26.29-27.83,19.36-45.66-5.64-14.49-20.01-23.22-31.3-18.98,2.31,1.8,4.61,3.6,6.93,5.26-6.79,1.03-13.72,1.92-23.99,3.33,6.93,4.36,9.36,5.9,11.93,7.44l-.12.12h.01ZM325.02,618.47c-1.15,6.16-2.44,12.45-3.84,19.62h22.7c1.03-8.59,1.92-16.8,2.95-25.14h-16.67c-10.9-1.54-21.81-3.33-32.84-4.49-23.99-2.31-30.66,5.64-24.11,27.97-4.23,1.54-8.34,3.07-12.57,4.49.12,1.41.38,2.69.51,4.1,26.94,4.1,54,8.08,81.19,12.19.77-15.01-.26-15.78-12.31-15.26-11.16.51-22.31,0-33.47,0v-3.72h19.12c3.72-8.08,6.41-13.98,9.24-20.01l.12.26h0ZM822.94,488.54c4.49-1.41,9.74-1.92,13.46-4.61,18.47-13.46,36.17-28.09,55.03-40.92,10.65-7.31,29.75-3.21,34.12,5.26,8.34,16.03,6.29,35.53-6.55,48.48-3.6,3.6-9.74,4.61-14.49,6.79,5.78-12.06,10.13-22.57,15.91-32.45,7.05-12.06-1.67-16.41-6.16-22.31-2.57,12.19-2.06,25.02-8.08,33.22-6.16,8.47-18.6,12.31-27.57,17.83,3.46.26,8.34.64,13.21,1.03-.38,1.67-.64,3.21-1.03,4.87-16.55-3.84-33.22-7.56-49.25-11.28,7.44,8.21,16.17,15.52,29.75,14.62,6.93-.51,14.11-.38,21.04.38,29.24,3.33,42.2-6.79,44.26-36.56.89-13.98-1.92-29.5-15.4-35.27-12.06-5.26-27.71-9.11-40.02.77-20.01,16.03-38.99,33.47-58.36,50.28-4.75-16.67-8.08-32.19,3.98-48.61,6.02-8.21,7.05-21.81-1.8-32.7-6.16,22.7-6.79,46.95-15.4,69-3.84,10-30.66,3.84-38.48,23.08-1.54,3.72-8.98,5.13-13.72,7.56-.51-.89-1.03-1.92-1.54-2.83,5.52-4.61,11.16-9.11,16.67-13.72-7.56-.77-13.72,1.15-19.88,2.69-20.52,5.26-41.94-5.39-48.48-24.24-6.67-18.98,2.06-29.5,21.55-26.29.38,0,1.03-1.15,1.67-1.67-6.41-5.26-26.42-6.41-28.22-.38-3.07,10.51-7.05,24.88-2.44,32.84,8.59,15.01,19.24,31.93,41.43,31.43-6.02.51-11.93,1.03-19.88,1.8,11.16,13.72,21.93,3.72,31.93,3.21.51,1.15.89,2.18,1.41,3.33-6.67,3.84-13.21,7.7-20.52,12.06.38,6.29.89,14.23,1.41,21.42-5.39-1.15-11.16-2.31-20.27-4.23,20.52,20.01,37.83,36.94,54.26,52.97,17.18,4.23,27.06-8.98,38.1-21.04,1.28,8.98,2.18,15.78,2.69,20.13,9.11.89,15.4,1.54,21.68,2.06-18.47-10.77-21.04-29.24-22.07-46.04-6.67,12.06-13.85,24.76-20.9,37.59-5.39-13.21-7.56-24.76-9.24-36.42-.38-2.95,1.03-6.41,2.31-9.36,4.36-9.36,8.59-18.86,14.11-27.45,1.92-2.95,7.44-4.49,11.54-5.13,3.98-.64,8.34.51,13.98,1.03,3.6,6.41,7.82,14.11,12.19,21.93,9.74,17.32,9.36,18.6-5.26,31.43-2.44,2.18-2.95,6.41-4.36,9.62,4.1-.51,9.36.38,12.19-1.8,10.26-7.95,14.88-25.52,9.5-37.19-8.21-17.83-16.93-35.65-41.43-33.86-.51,0-1.15-1.28-1.67-1.92,6.02-18.73,6.41-18.86,22.83-10.51l.26.12v-.04ZM680.05,392.72c1.03,8.08,3.07,16.29,2.69,24.24-1.03,16.67-3.33,33.35-5.13,50.02-.38,3.21-.64,6.29-.89,9.5-2.31-6.93-.89-14.23-2.69-20.65-1.41-5.01-6.67-8.98-10.13-13.34,0,10.26,4.49,18.98,4.36,27.57-.26,13.72-3.98,27.32-5.52,40.92-1.92,17.32,9.11,28.98,27.97,29.37,1.15-5.64,4.1-11.8,3.33-17.32-2.69-19.24-9.11-38.22-9.24-57.33,0-10.77,6.67-27.83,14.88-31.3,17.32-7.31,37.83-9.24,51.94,10.77,8.34,11.93,19.62,18.73,35.02,14.37-8.08-20.65-6.93-24.24,10.13-24.24-1.67-6.55-2.69-12.69-4.87-18.47-4.1-11.16,1.8-21.04,12.45-20.01,3.07.26,6.16.89,9.5,1.41-4.23-8.73-7.82-16.41-11.54-23.99-1.41.51-2.69,1.03-4.1,1.54.26,10.26-2.95,17.06-12.69,16.67,2.06-5.52,6.79-14.37,5.39-15.64-7.18-5.9-15.64-10.26-24.24-13.98-5.13-2.18-11.54-1.15-16.67-3.33-23.6-10.13-46.95-21.04-69.26-31.17v64.65c-1.67-4.61-4.36-8.98-4.75-13.72-1.54-16.8-2.06-33.73-3.33-50.53-.26-3.46-1.92-6.93-3.6-12.31-20.65,43.61-9.74,83.24,1.41,123,2.57-5.78,3.21-11.42,4.23-17.06,1.8-10,3.72-20.01,5.52-30.01l-.12.38h-.04ZM721.22,117.86c-12.06,24.24-11.8,54.26-42.07,65.42,16.55-1.8,30.4-2.83,39.63,13.08,2.31,4.1,9.36,6.41,14.75,7.56,16.03,3.21,32.32,7.31,48.48,7.7,38.6.77,31.55-3.21,44,33.99,1.8,5.52,6.79,9.88,10.39,14.88,1.41-.64,2.83-1.28,4.36-1.92,1.03-4.36,3.21-8.98,2.69-13.21-.51-4.23-3.6-8.08-5.78-12.57,25.79,3.46,27.45,2.83,30.52-10.39h26.29c.38-1.15.77-2.44,1.15-3.6-8.98-7.05-17.83-13.98-26.8-21.04,1.15-1.67,2.31-3.33,3.46-5.13,13.98,8.47,27.71,17.18,41.94,25.14,5.78,3.21,12.45,4.75,18.86,7.05.38-7.05,2.57-14.37.89-20.9-2.31-9.11-7.31-17.44-12.19-28.22,38.36,8.47,71.32,7.31,82.72-40.02-3.72-2.31-8.47-5.26-13.21-8.08,1.15-1.8,2.18-3.6,3.33-5.39,11.03,3.98,22.57,7.05,33.09,12.06,10.9,5.26,20.39,14.23,31.69,18.35,17.18,6.16,21.68,17.57,22.45,34.38.38,9.62,5.78,18.98,8.98,28.48,2.06-.64,4.1-1.15,6.16-1.8-2.83-20.27,11.03-39.63-8.98-61.95-14.23-15.91-25.65-35.53-40.4-52.59-12.83-15.01-24.37-20.39-41.81-16.8-8.59,1.8-17.7,3.98-25.26,8.21-36.81,20.65-73.24,41.94-109.8,63.24-.64.38-.64,1.54-1.15,2.83,6.41,4.49,12.83,8.98,20.27,14.11-29.75-2.83-57.07-5.39-84.66-7.95.51-1.67,1.28-3.98,2.06-6.41-23.47-6.29-41.81,3.33-58.87,17.7,10.39-17.95,26.17-28.74,43.23-38.1,4.1-2.31,6.79-7.18,10-10.9-5.01-4.23-10.39-12.45-14.75-11.93-13.6,1.67-26.8,6.41-39.89,10.65-3.98,1.28-7.31,4.61-13.21,8.59,5.9-22.19,16.8-34.38,37.19-36.81,9.36-1.15,16.8-4.75,13.6-16.41-3.07-11.42-10.77-7.44-18.09-5.13-14.49,4.61-23.6-2.31-18.98-16.55,5.26-16.03-2.95-18.73-14.62-20.78-6.02-1.03-12.06-2.44-18.09-2.69-41.05-1.54-71.83,19.62-97.86,47.84-7.18,7.82-10.26,22.7-9.62,33.99,1.41,26.03,10.26,50.53,25.14,72.34,2.18,3.21,7.31,4.49,11.03,6.67l2.44-3.6c-4.87-13.98-8.85-28.48-15.01-41.81-4.75-10.39-15.26-19.75,2.31-27.97,1.67-.77,1.8-4.36,3.46-6.02,7.18-7.44,14.49-14.75,22.07-21.81,9.5-8.73,20.13-16.41,28.48-26.17,4.36-5.01,5.26-15.4,13.98-11.28,4.1,1.92,4.87,11.28,6.79,17.44.51,1.67.51,3.98-.26,5.52-7.95,16.93-3.84,29.89,13.08,38.48l.38.26.03-.04ZM686.34,323.22c63.36,33.73,130.44,34.12,198.93,21.55-15.4-1.8-30.91-3.46-46.3-5.26,0-.89.12-1.8.26-2.69,22.96-1.8,45.92-3.6,68.88-5.39,0-1.15-.12-2.18-.26-3.33-15.01-2.95-30.01-5.78-45.03-8.73.26-.64.38-1.15.64-1.8,24.11-1.8,48.36-3.46,72.47-5.26,0-1.03,0-2.06-.12-3.07-12.69-3.33-25.4-6.55-38.1-9.88.12-1.03.38-2.06.51-3.07h34.38c-11.54-8.08-23.85-13.34-35.91-18.98-7.31-3.46-12.95-2.57-18.98,3.07-13.34,12.57-27.19,24.76-43.74,39.63,4.23-8.08,6.55-12.83,8.98-17.44-.64-.38-1.15-.89-1.8-1.28l-24.37,29.24c-1.15-.26-2.31-.51-3.46-.77v-14.62c-.12-16.41.38-32.96-.77-49.38-1.67-24.88-8.08-31.93-32.45-36.81-27.83-5.64-54.89-12.95-78.76-28.98-2.18-1.41-5.01-1.67-9.88-3.07-1.03,13.72,0,26.68-3.21,38.48-6.41,23.6,6.02,36.17,23.34,47.19,1.92,1.15,3.72,2.57,8.73,6.16-9.5-1.41-15.26-2.31-20.9-3.21-.38.89-.77,1.92-1.15,2.83,12.31,5.9,24.76,11.68,37.07,17.57-11.93.77-23.08-.26-33.99-2.69-10.26-2.18-20.39-5.78-30.52-8.85-.64,1.92-1.15,3.84-1.8,5.78,19.36,8.73,38.74,17.32,58.1,26.03-.12.51-.26,1.03-.38,1.54-13.46-1.54-26.94-2.95-40.28-4.49h-.12v-.02ZM836.92,733.14c16.55-25.91,32.19-50.79,48.36-76.19-20.52-3.68-35.83,2.22-45.92,17.7-5.39,8.34-10.65,16.67-16.17,24.88-5.01,7.44-10.13,14.88-15.26,22.31-1.15-.38-2.44-.89-3.6-1.28v-66.31c-20.18-1.88-30.27,6.5-30.27,25.14v109.92c11.54-.64,21.55-1.28,33.47-1.92v-45.15c13.85,12.69,26.55,21.04,34.64,32.58,10.13,14.37,22.31,14.62,37.45,12.19-5.01-24.76-21.16-40.4-42.84-54l.12.12h.01ZM948.5,734.29c14.62,1.15,28.35,2.31,42.32,3.46,3.21-10.39,2.44-16.8-9.5-17.18-6.55-.26-13.08-2.69-19.5-2.31-12.19.77-16.03-4.75-14.37-15.91.51-3.6.77-7.18,1.28-12.06,25.26,3.46,49.51,6.93,74.27,10.39v-28.22c-33.99-5.9-67.46-11.8-102.87-17.96v105.82c0,27.71,0,27.83,26.68,31.93,22.57,3.46,45.15,6.79,68.23,10.13v-33.22c-16.55-2.95-32.19-6.02-47.98-8.34-20.9-2.95-20.9-2.69-18.6-26.55h0l.02.02ZM620.02,674.27c-30.4,11.54-59.64,22.57-88.62,33.99-2.69,1.03-5.52,5.39-5.64,8.47-.77,9.62-.26,19.36-.26,30.78,22.07-9.11,42.58-17.44,66.43-27.32-6.67,35.65-18.6,63.36-45.92,82.09-17.44,11.93-19.75,16.93-14.23,39.37,13.85-5.9,28.6-10,41.05-17.83,22.7-14.23,43.48-32.84,46.56-60.67,3.21-28.22.77-57.21.77-88.88h-.14ZM739.18,652.46c-16.41,2.31-30.78,4.23-45.15,6.29-21.3,3.07-35.41,12.95-36.94,34.38-2.57,34.88-.77,70.15-.77,106.33,12.69-2.31,26.03-2.31,37.33-7.18,21.16-9.11,41.43-23.85,44.5-47.33,3.98-29.5.89-59.9.89-92.34l.12-.12h.01ZM1083.95,824.07v-47.33c21.04,16.41,37.19,33.35,44.64,56.05,4.23,13.08,12.45,16.93,27.97,20.39-4.61-16.8-6.67-31.93-12.95-45.03-6.55-13.6-17.32-25.26-26.8-38.48,15.91-12.31,30.52-26.42,36.81-49.25-29.5-12.31-58.1-24.24-89.01-37.19-2.06,41.43-3.98,78.5-5.52,115.56-.89,21.93-.51,21.93,25.02,25.26h-.15ZM1061.63,966.32c46.18-6.41,91.33-13.08,134.16-39.25-35.65-28.98-74.9-42.71-115.56-54.77,11.54,16.8,23.08,33.61,35.02,51.05-18.6,14.88-36.17,28.98-53.62,42.97ZM602.83,968.24c-20.65-16.67-38.36-30.78-55.92-45.03,12.31-18.09,23.47-34.5,34.5-50.79-41.05,12.69-80.8,25.52-113.76,53.86,24.37,18.47,74.52,33.99,135.19,41.81v.12h0ZM518.57,662.47c16.29-3.6,24.88-10.9,26.42-25.91.51-5.26,4.87-10.13,7.44-15.14.77.51,1.54,1.15,2.31,1.67-1.8,8.34-3.6,16.8-5.26,25.14,1.03.77,2.06,1.41,3.07,2.18,4.75-3.07,12.31-5.39,13.46-9.36,3.33-12.31-1.67-22.83-12.57-31.04-3.21,2.31-6.41,4.49-11.16,7.82,1.28-3.21,1.54-5.26,2.69-6.29,4.75-4.75,9.74-9.36,14.75-13.85,3.84,5.39,9.11,10.39,11.28,16.41,2.95,8.21,3.72,17.32,5.39,26.03,1.15.64,2.44,1.15,3.6,1.8,2.31-4.1,7.05-8.47,6.67-12.31-1.67-14.88-3.46-30.01-8.21-44.12-6.41-19.5-19.75-21.04-31.55-4.36-16.8,23.99-22.96,51.94-28.22,81.45l-.12-.12h0ZM1258.38,613.47c1.15-.77,2.31-1.41,3.46-2.18-3.46-3.98-6.55-10.9-10.39-11.28-19.36-2.06-38.99-2.44-60.41-3.46v57.07c-28.48-3.07-58.75-6.41-89.01-9.74,31.55,20.27,67.34,20.13,99.15,25.79,3.6-18.86,3.6-36.94,10.65-51.56,8.21-17.18,22.45-16.93,46.56-4.49v-.15ZM601.55,135.18c-14.49,10.39-19.62,21.16-15.01,36.68,5.64,18.86,10,38.1,14.49,57.21,2.44,10.13,3.98,20.52,6.02,30.78,1.15.12,2.44.26,3.6.51,2.31-7.18,7.82-15.26,6.29-21.55-5.01-20.27,4.61-42.2-7.31-61.44-.26-.38,0-.89,0-1.41-2.57-13.08-5.13-26.17-8.08-40.79h.01ZM786.64,596.8c-.64,7.05-2.44,12.19-1.28,16.55,1.67,6.16,4.61,16.17,8.59,16.93,9.74,1.92,20.39.51,30.4-1.41,7.05-1.28,13.34-7.18,20.39-8.21,19.12-2.69,26.29-11.42,23.85-34.12-3.84,5.52-6.67,9.62-8.73,12.69-2.18-2.69-4.49-5.64-6.16-7.82-9.74,6.02-18.09,11.03-26.42,16.17-8.21-12.45-9.36-12.31-21.3-.51-5.78-3.07-11.42-5.9-19.36-10.13v-.15ZM856.79,263.44l4.23,4.49c5.78-3.72,11.42-8.08,17.57-11.03,3.07-1.41,8.73-2.06,11.03-.26,32.19,24.37,66.95,41.43,111.46,37.07-9.74,21.04-20.27,39.12-26.42,58.49-9.11,28.48-26.94,42.58-56.18,43.61-.51,0-.89.89-2.95,3.07,11.03-1.28,20.52-1.41,29.5-3.6,6.93-1.8,16.29-4.49,18.98-9.74,15.91-31.3,30.14-63.48,45.79-97.23-7.95,0-13.85.26-19.88,0-32.19-1.92-62.21-9.74-86.7-32.32-16.17-15.01-17.7-15.14-34.64-.26-3.6,3.07-7.95,5.26-11.93,7.82l.12-.12h.01ZM1236.84,682.09c1.8-12.19,4.87-22.7,4.61-33.09-.26-13.98,1.03-16.03,18.35-13.34-1.54,5.39-3.21,10.51-4.61,15.78-1.15,4.75-2.06,9.62-3.6,17.32,7.44-5.9,12.57-8.59,16.03-12.83,2.83-3.46,6.02-9.36,4.87-12.95-4.36-15.26-24.37-18.98-35.27-7.31-15.91,17.06-13.98,57.6,3.46,72.47,11.93,10.26,25.02,6.55,31.93-10.39-3.98,1.41-6.93,2.57-8.98,3.21-2.57-7.95-4.87-15.52-6.67-21.04-8.98,1.03-15.14,1.67-20.13,2.18h0ZM259.09,617.44c3.33-12.95-3.98-17.44-17.06-19.24-24.63-3.21-48.99-7.7-73.5-11.93-25.91-4.49-25.26-4.61-28.74,21.04-1.54,11.68,2.57,15.91,13.46,17.96,28.09,5.01,56.05,11.03,84.14,16.55,18.86,3.72,20.27,2.44,21.68-17.06.12-1.92,0-3.72,0-7.05v-.26h.01ZM1109.09,240.48c.26-11.28-8.73-20.65-20.13-21.16-11.93-.38-21.93,9.11-21.81,20.9.12,11.16,9.5,20.39,20.9,20.39s20.78-8.98,21.04-20.13h0ZM386.72,655.28c9.88,24.24,91.96,21.68,112.49-2.95-19.5,2.57-37.83,6.55-56.31,7.05-18.47.51-36.94-2.57-56.31-4.1h.12,0ZM345.8,427.24l4.23,5.01c4.61-3.72,10-6.67,13.46-11.28,7.44-9.74,13.98-20.01,20.39-30.4,5.64-8.98,13.34-12.31,23.73-12.06,22.57.51,45.15.51,67.72.64,3.98,0,8.08-.89,12.06-1.28-1.92-3.6-3.46-4.87-5.13-4.75-32.32,1.54-64.65,3.07-97.09,5.01-3.21.26-7.44,2.44-9.24,5.13-10.39,14.49-20.13,29.37-30.14,44v-.02ZM1034.7,351.43c-12.69,7.7-16.03,18.21-11.8,30.52,3.84,11.42,13.08,17.32,25.14,16.03,11.42-1.15,19.62-7.31,21.55-19.88-21.81-.51-26.94-4.36-34.88-26.8v.12h0ZM1064.57,188.54c-24.76-2.69-49.64-5.64-72.6,16.67,7.18-17.7,13.08-31.93,18.98-46.18-20.13,26.42-32.19,59.76-27.83,70.67,16.8-35.27,50.02-35.91,81.57-41.05l-.12-.12h0ZM50.41,587.81c0-10.65,1.03-17.7-.38-24.37-.89-4.36-5.13-11.28-7.95-11.28-8.21-.26-16.55,2.31-24.88,3.84,1.15,6.02.38,14.75,4.1,17.7,7.56,6.02,17.57,8.85,29.12,14.23v-.12h-.01ZM785.87,626.43c-3.33-11.28-5.78-19.5-8.21-27.83-4.61,1.92-9.36,3.98-14.62,6.16-.38-8.59-.77-18.98-13.46-11.8-4.1-5.52-7.7-10.39-11.28-15.26-1.28.38-2.44.77-3.72,1.15-.26,4.75-.64,9.62-.89,14.37,1.41-.64,2.83-1.15,4.23-1.8,3.98,5.78,7.7,11.68,11.8,17.32,1.8,2.44,3.6,5.52,6.16,6.67,8.21,3.46,16.8,6.29,29.89,10.9l.12.12h-.02ZM1000.58,852.04c-1.03.77-2.06,1.41-3.07,2.18v46.69l3.72.26c.51-10.9,1.03-21.81,1.54-34.12,9.11,12.95,17.06,24.5,25.02,35.91.89-.89,1.8-1.67,2.69-2.57v-46.18h-4.1v34.76c-10-14.37-17.83-25.65-25.65-36.81l-.12-.12h-.01ZM668.12,221.88c.26-2.18.38-4.23.64-6.41-5.64-5.01-10.39-12.45-16.93-14.37-10-2.95-17.32,3.84-18.35,14.11-1.03,10.39,5.13,18.21,15.26,17.44,6.67-.51,12.95-7.05,19.36-10.77h.01ZM958.63,422.35c-3.07,8.34-5.9,15.64-8.34,23.08-1.03,3.07-1.8,6.29-1.8,9.5-.26,19.24.12,38.48-.38,57.6-.77,29.75-9.62,34.76-39.51,36.17-2.83.12-5.64-.26-8.47-.38v3.84c7.95,0,16.41,1.67,23.85-.26,22.96-6.16,29.75-15.64,30.14-39.37.38-26.29-2.44-52.71,5.01-78.62,1.03-3.33-.26-7.44-.64-11.54h.15ZM892.96,899.88c-5.01-14.37-9.74-28.74-15.26-42.84-.51-1.15-8.47-1.28-8.85-.26-5.52,14.37-10.26,28.98-15.26,43.61,13.34-10,26.47-10.13,39.37-.38v-.12ZM656.57,902.06c.38-2.44,1.15-4.1.89-5.64-1.54-9.5-8.08-18.47-.64-28.74,1.03-1.41-5.78-11.8-10.39-13.21-5.39-1.67-17.7,1.41-17.83,3.33-1.54,14.37-.89,28.98-.89,43.48,1.8,0,3.46.26,5.26.26.89-6.41,1.8-12.83,2.69-19.12,17.44-4.75,10.51,16.03,21.04,19.62h-.12,0ZM988.01,877.56c0-14.75-8.08-24.37-21.04-24.76-13.6-.26-22.7,9.62-22.83,24.76-.12,14.75,8.08,24.37,21.16,24.63,13.6.26,22.57-9.5,22.7-24.76v.12h.01ZM810.24,877.18c0-14.75-8.47-24.24-21.55-24.24s-22.31,10-22.19,25.26c0,14.88,8.34,24.24,21.55,24.24s22.31-9.88,22.19-25.26ZM606.17,302.18c-13.85-6.41-23.6-10.9-34.88-16.03-4.49,4.61-7.7,13.6-1.03,21.16,4.36,5.01,13.6,9.5,19.75,8.47,6.29-1.03,11.28-9.11,16.29-13.6h-.12ZM1026.87,272.93c.51.77.89,1.54,1.41,2.31,2.18-1.28,4.61-2.44,6.67-3.98,11.16-7.95,20.13-7.56,27.45,5.64,3.07,5.64,8.08,10.26,12.95,14.75,7.95,7.31,9.74,14.23,1.41,22.45-5.26,5.26-9.88,11.03-14.88,16.55.89.64,1.67,1.28,2.57,2.06,10.13-10.9,20.27-21.81,27.83-29.89-12.95-14.49-23.73-26.17-33.99-38.22-4.87-5.64-9.5-6.93-15.64-2.31-5.01,3.72-10.39,7.18-15.64,10.77l-.12-.12h-.01ZM848.84,902.95c-1.41-13.46-9.74-24.37-1.92-36.17,1.03-1.54-5.26-10.39-9.62-12.45-4.87-2.18-11.54-.51-17.57-.51v47.19c1.15,0,2.44.26,3.6.38.77-6.41,1.54-12.83,2.18-18.86,17.83-5.01,11.16,15.52,23.47,20.52l-.12-.12h-.01ZM1124.73,242.02h-1.92c2.44,12.83,6.16,25.52,6.79,38.36.51,10.65-1.03,22.07-4.75,31.93-3.21,8.47-10.65,15.4-16.29,22.96,6.41-7.05,16.41-11.16,23.34-18.09,5.01-5.13,9.36-14.88,8.08-21.42-3.46-18.09-10-35.65-15.4-53.48l.12-.26h.01ZM690.18,878.07l.26-2.95c-5.52-.89-11.03-1.8-17.32-2.83v-12.31c6.55-.77,12.45-1.41,18.35-2.18-.12-1.03-.26-2.18-.38-3.21h-24.37v45.66h25.14v-3.21c-6.16-.64-12.19-1.28-18.6-1.92v-15.01c6.29-.77,11.54-1.41,16.8-2.06h.12v.02ZM728.01,856.4c-12.57-4.61-21.55-5.9-26.42,3.72-1.92,3.72.77,11.42,3.72,15.78,3.72,5.64,9.74,9.74,14.75,14.49-6.41,2.69-12.95,5.39-21.04,8.85,10.13,4.1,19.62,6.16,26.17-3.6,6.67-9.88.38-16.17-8.59-21.16-3.98-2.18-6.67-6.67-10-10.13,4.75-1.8,9.5-3.6,14.23-5.39,1.28-.51,2.57-.89,7.31-2.57h-.14ZM904.12,900.9c1.8.12,3.6.26,5.39.38v-40.14c6.67-1.8,10.9-2.95,15.26-4.23-.26-.77-.38-1.54-.64-2.44h-34.24c0,.89-.26,1.67-.38,2.57,4.36,1.15,8.85,2.31,14.62,3.84v40.02h0ZM1590.84,394.26c-5.9,9.11-11.93,14.62-12.19,20.39-.26,4.75,6.41,14.37,9.5,14.23,11.93-.64,9.88-12.83,12.06-20.65.64-2.31-4.1-6.29-9.36-13.85v-.12h-.01ZM1277.36,696.46v-39.89c-1.15,0-2.44,0-3.6.12.51,4.23,1.15,8.59,2.06,14.88-5.01-3.21-8.21-5.26-11.42-7.31-10.65,9.24-7.7,17.44,12.95,32.07v.12h0ZM746.24,860.5v40.66h4.36v-40.14c6.16-1.54,10.39-2.44,14.49-3.46,0-.77-.26-1.41-.38-2.18h-33.35v2.69c3.98.64,7.95,1.41,14.88,2.57v-.12h0ZM408.26,389.77l-4.23-4.23c-12.06,13.6-24.24,27.19-36.3,40.79,1.54,1.41,3.07,2.83,4.75,4.23,18.09-7.82,20.39-30.4,35.79-40.79h-.01ZM931.32,900.9c1.15,0,2.31-.12,3.46-.26v-46.69h-3.46v46.95ZM1078.31,197.64c-3.84,6.93-7.56,16.03-13.34,23.47-14.62,18.86-6.41,40.92,18.73,46.69-5.26-3.98-10.26-7.05-14.49-11.03-10.77-10-11.8-26.29.38-34.12,12.69-8.08,11.8-16.93,8.73-24.88v-.12h-.01ZM935.67,439.79c-2.83-13.34-15.01-19.5-31.69-14.88,10.13,4.75,21.04,9.88,31.69,14.88Z"/>
          <path class="cls-1" d="M418.78,608.34c-4.87-2.95-12.31-5.01-14.11-9.36-1.92-4.61,1.28-11.42,2.06-16.03-6.93-10.51-16.41-20.65-20.78-32.7-7.95-21.81,5.13-46.18,26.17-54,20.01-7.44,41.94,2.57,51.05,23.34,9.62,21.68,1.92,49.13-18.73,58.61-11.16,5.13-19.36,9.74-18.86,23.34,0,1.92-3.46,3.98-5.39,5.9-.51.26-1.03.64-1.54.89h.12,0ZM461.23,538.44c0-22.57-15.91-40.79-35.79-41.05-19.88-.26-36.17,17.83-36.42,40.28-.26,23.47,15.78,41.81,36.3,41.55,20.01-.12,35.79-18.21,35.79-40.92l.12.12h0Z"/>
          <path class="cls-1" d="M1260.3,461.22c14.88-.77,29.75-1.54,45.53-2.31-2.57-3.84-11.98-5.81-28.22-5.9,1.15-4.87,1.28-4.87,20.01-8.21-5.64-6.55-10.51-12.06-15.4-17.7.77-.89,1.54-1.8,2.31-2.69,5.39,4.87,10.65,9.74,17.06,15.64,5.26-8.98,3.46-15.78-3.98-20.9-7.95-5.52-15.52-2.31-26.29,10.65-1.15-9.5-2.44-18.09-3.33-26.68-.89-8.34-1.28-16.8-1.92-26.68,10-1.54,19.62-3.07,29.37-4.61-.26-1.28-.51-2.57-.77-3.84-22.57,4.61-45.27,9.11-67.85,13.72-.12-.77-.38-1.54-.51-2.31,26.42-6.67,52.85-13.34,77.47-19.62-.64,4.23-2.83,9.11-1.8,13.21,5.64,24.24,12.31,48.22,17.96,72.47,2.06,8.47,6.55,9.62,14.23,8.98,29.89-2.31,59.76-3.98,89.65-5.78,2.31-.12,4.61.77,6.79,1.15,6.29-.38,12.69-.77,18.98-1.15-3.46,1.92-6.93,5.52-10.51,5.64-33.22,1.54-66.43,2.57-99.66,3.84-4.1.12-8.21.51-12.57.89-2.83,12.19.26,18.21,12.83,21.42,60.79,15.91,112.61,46.56,151.48,97.23,2.31,2.95,4.49,6.02,6.55,9.24.38.51,0,1.67-.26,4.49-4.61-4.87-8.47-8.59-11.8-12.69-40.02-47.33-89.39-80.03-149.81-95.29-10.26-2.57-13.6-7.56-15.14-18.21-2.06-14.49-7.82-28.48-12.06-42.58-1.54.51-3.07.89-4.61,1.41,6.02,21.55,12.06,43.09,17.96,64.51-7.95,1.15-9.24,1.15-9.11-8.98.12-15.01-6.41-17.96-20.01-16.55-33.47,3.33-67.22,5.26-102.87,7.95,1.41-16.17,2.57-30.27,3.84-44.5-.51,0-1.15,0-1.67-.12-2.31,14.11-4.61,28.09-7.05,43.35-5.13-7.18.38-68.75,6.02-80.03.12,3.21.26,6.41.38,7.56,11.8-4.36,23.85-8.73,39.12-14.37-3.6,30.27-6.79,56.31-10.26,84.78,13.34-2.18,26.8-4.36,40.28-6.67l-.38.26h0l.02-.02Z"/>
          <path class="cls-1" d="M1581.48,638.35c-31.17,5.64-62.08,12.69-93.37,16.67-37.59,4.87-75.42,7.7-113.13,10.39-14.23,1.03-28.74-.77-42.97-1.41,10.51-2.83,15.9-6.93,5.9-17.32-2.31-2.44-1.03-8.73-.77-13.08,0-.64,4.61-1.8,4.75-1.54,1.92,3.72,4.61,7.7,5.01,11.68,1.8,19.12,1.67,20.01,21.3,17.96,67.46-7.18,134.93-15.01,202.4-22.7,3.72-.38,7.44-.51,11.16-.64h-.27Z"/>
          <path class="cls-1" d="M1338.54,606.67c-4.49-36.68-8.98-73.36-13.6-112.23,27.57,2.44,48.61,15.4,69.91,27.57-19.36-6.93-38.86-13.85-61.05-21.81,2.44,37.71,4.75,72.21,7.05,106.59-.77,0-1.54,0-2.31-.12Z"/>
          <path class="cls-1" d="M1411.01,572.94c-2.83-4.36-5.78-8.73-8.59-12.95,1.15-1.15,2.31-2.18,3.46-3.33-4.87-.51-9.74-1.03-13.08-1.41,23.22-1.92,38.36,8.34,38.36,27.32,0,16.29-9.36,23.6-28.86,21.93-17.7-1.54-26.55-11.8-23.99-28.09.38.26,1.03.51,1.15.89,2.57,11.28,5.39,24.24,20.27,21.68,14.37-2.44,11.93-15.52,11.03-26.29,1.54,8.59,2.95,17.18,4.36,25.4,8.21-7.31,11.16-16.8,7.05-25.02-3.46-7.18-7.44-8.08-11.28,0l.12-.12h-.01Z"/>
          <path class="cls-1" d="M1529.4,587.81c10.39-43.23,23.08-85.55,52.46-120.82-17.57,40.4-35.14,80.8-52.46,120.82Z"/>
          <path class="cls-1" d="M1514.77,526.63c-8.98-13.21-12.83-3.98-16.8,3.07-13.08-16.17-17.36-27.66-12.83-34.5,5.78,7.82,11.42,15.4,19.62,26.42,2.83-12.19,4.61-20.13,6.41-27.83,9.88,6.41,10.13,8.08,3.6,32.84Z"/>
          <path class="cls-1" d="M1449.62,448.78c-6.29.38-12.69.77-18.98,1.15,8.08-1.03,16.03-2.57,24.11-2.83,23.34-.89,46.69-1.15,69.91-1.8,12.19-.38,24.24-.89,36.3-2.06,4.87-.38,9.5-2.69,14.23-4.1-1.15,2.31-2.31,6.55-3.6,6.55-40.66,1.28-81.32,2.18-121.97,3.07h0Z"/>
          <path class="cls-1" d="M1543.38,578.58c-4.49,18.98-8.59,38.22-14.11,56.95-1.15,3.98-7.82,6.41-13.08,10.39,5.39-10.65,9.88-18.21,13.08-26.29,5.26-13.46,9.62-27.19,14.37-40.79l-.26-.26Z"/>
          <path class="cls-1" d="M1431.79,541c15.01,16.17,30.14,32.19,45.15,48.36-.89.77-1.67,1.67-2.57,2.44-15.14-15.91-30.27-31.81-45.41-47.72.89-1.03,1.92-2.06,2.83-3.07h0Z"/>
          <path class="cls-1" d="M1481.18,485.33c-13.46,15.4-11.68,32.45-3.6,52.85-14.88-18.98-12.95-37.71,3.6-52.85Z"/>
          <path class="cls-1" d="M1376.64,535.22c-1.92,2.95-3.72,8.34-5.9,8.47-7.05.64-14.37-.26-21.3-1.67-1.03-.26-.64-6.55,0-10.13,8.73,13.72,13.98,13.98,23.6,1.03,1.28.77,2.44,1.54,3.72,2.31h-.12Z"/>
          <path class="cls-1" d="M121.2,519.7c2.06.77,5.52,2.69,5.9,2.31,13.6-18.47,32.58-15.64,51.43-13.34,7.31.89,14.62,1.8,22.19,2.83-6.16,7.82-11.93,15.01-17.57,22.19l.38.38c-4.75-1.54-9.24-3.84-14.11-4.23-18.98-1.8-37.97-2.95-56.95-4.36l.38.38c2.69-1.92,5.52-3.98,8.21-5.9l.12-.26h0Z"/>
          <path class="cls-1" d="M193.29,573.7c-10.77-2.57-21.42-5.64-32.45-7.44-15.01-2.44-25.91-9.24-31.3-23.99-.77-1.92-2.57-3.46-5.01-6.79v9.88c-3.72-3.84-7.82-7.31-10.9-11.68-1.41-1.92-.51-5.39-.77-8.21l-.38-.38c1.28,2.06,2.06,5.39,3.84,6.02,20.52,6.67,41.05,12.95,61.56,19.36,2.18-6.55,3.84-11.68,5.52-16.67l-.38-.38c3.33,13.34,6.67,26.68,10.13,40.14l.12.12h.02Z"/>
          <path class="cls-1" d="M334.64,528.43c-29.37-5.13-58.61-10.9-88.12-15.4-27.19-4.1-54.64-7.05-81.95-9.88-6.79-.77-13.85.77-20.78,1.28,3.98-1.8,8.08-5.39,11.8-5.13,58.61,5.52,117.62,8.85,174.43,26.29,1.67.51,3.21,1.8,4.75,2.83h-.14Z"/>
          <path class="cls-1" d="M287.43,441.08c-13.34,19.88-33.47,19.5-50.02,29.12l13.72,2.57v1.28h-26.29c-.51-1.41-.89-2.95-1.41-4.36,20.39-9.11,40.79-18.21,64-28.6h0Z"/>
          <path class="cls-1" d="M797.79,317.7c-2.95-14.37-6.79-28.6-8.59-43.23-1.54-12.57-6.29-21.93-17.44-28.48-5.52-3.21-9.88-8.21-13.21-15.26,10.77,4.61,21.55,8.98,32.19,13.98,1.67.77,2.83,3.72,3.07,5.78,2.57,22.07,5.01,44.26,7.44,66.43-1.15.26-2.31.51-3.46.64v.12Z"/>
          <path class="cls-1" d="M697.62,206.75c12.83,5.78,24.5,10.9,36.04,16.03.38,1.54.89,2.95,1.28,4.49-27.19-10-37.59,3.72-40.28,28.22-1.28-.89-2.69-1.92-3.98-2.83,2.18-14.75,4.49-29.5,6.93-45.92h.01Z"/>
          <path class="cls-1" d="M1403.19,363.23c24.37-8.85,39.63,8.59,49.51,36.17,3.46,9.62,9.11,18.6,13.46,27.97,3.84,8.21,2.57,13.46-7.95,14.11-36.56,2.44-73.24,5.01-109.8,7.7-7.95.64-11.8-2.18-13.72-10.13-4.61-19.12-10-38.22-15.52-57.07-3.07-10.39,0-14.62,11.16-14.88,21.55-.51,43.09-2.18,72.72-3.72l.12-.12v-.02Z"/>
          <path class="cls-1" d="M1450.64,361.43c19.75,0,39.37,0,59.13.26,3.98,0,10,.26,11.42,2.57,13.6,22.19,26.42,44.89,40.52,69.26-7.56,1.41-12.31,2.31-16.93,3.21.51,1.28,1.15,2.69,1.67,3.98,7.7-3.33,15.26-6.79,22.96-10.13,1.28,8.59-3.33,10.13-10.65,10-20.52-.38-41.05,0-61.82-.38,6.16.38,12.31.77,20.52,1.28-27.97,4.61-30.78,3.07-42.46-20.9-6.93-14.37-14.23-28.6-20.78-43.09-2.18-4.87-2.44-10.65-3.6-16.03v-.02Z"/>
          <path class="cls-1" d="M1260.69,460.97c-11.16.77-22.19,1.41-35.53,2.31,2.83-25.14,4.23-49.9,9.36-73.88,1.15-5.13,15.64-7.44,25.91-11.93,3.6,25.26,6.41,46.43,9.62,67.72,1.15,8.34-2.57,13.21-9.88,16.03l.38-.26h.14Z"/>
          <path class="cls-1" d="M772.27,420.95c-5.26,5.52-12.19,12.83-21.3,22.31-1.8-6.41-2.69-10.13-3.98-13.72-2.83-7.95-5.9-15.78-8.73-23.73-1.28-3.46-1.92-7.18-2.83-10.9,4.36,1.15,9.62,1.03,12.95,3.6,7.82,6.16,14.62,13.46,23.85,22.31v.12h.02Z"/>
          <path class="cls-1" d="M672.74,731.34c1.92-29.5,8.08-38.6,28.86-41.31,8.21-1.03,12.57,1.15,12.19,10.26-.38,9.88.12,19.62-.26,29.5-.12,3.6-1.41,7.44-3.33,10.51-5.9,9.62-26.03,20.13-30.66,14.88-4.87-5.64-4.87-15.64-6.93-23.73l.12-.12h.01Z"/>
          <path class="cls-1" d="M1087.67,750.2v-46.3c13.72,5.64,26.03,10,37.33,16.03,2.18,1.15,3.21,10.51,1.03,13.21-9.24,11.54-22.07,16.55-38.36,17.06Z"/>
          <path class="cls-1" d="M196.24,563.32c15.4-15.4,21.04-14.49,34.5,5.01-10.77,13.34-21.42,11.93-34.5-5.01Z"/>
          <path class="cls-1" d="M218.05,519.96c14.37,10.39,16.55,23.22,15.52,37.97-16.67-9.62-18.98-14.88-15.52-37.97Z"/>
          <path class="cls-1" d="M192.01,554.08c.89-14.37,2.95-26.42,17.57-33.47,1.15,15.14-1.54,26.94-17.57,33.47Z"/>
          <path class="cls-1" d="M251.4,637.83c-35.27-6.79-68.37-12.45-100.95-20.39-3.6-.89-5.52-13.98-5.64-21.42,0-2.57,8.21-8.08,11.93-7.44,28.98,4.61,57.98,10.26,86.84,16.17,2.95.64,7.05,4.75,7.44,7.56,1.03,7.56.38,15.52.38,25.4v.12Z"/>
          <path class="cls-1" d="M634.9,874.23v-18.6c6.67,4.61,11.03,7.56,15.4,10.65-3.72,3.84-7.56,7.7-11.28,11.68-1.41-1.28-2.69-2.44-4.1-3.72h-.01Z"/>
          <path class="cls-1" d="M67.6,473.54c5.26,1.67,10.65,3.33,17.32,5.39-3.33-6.79-6.16-12.69-9.11-18.6,21.16,8.73,23.99,34.5,5.9,52.71-5.78-1.15-11.42-2.18-17.18-3.33-.12-1.03-.38-1.92-.51-2.95,6.55-1.54,13.21-3.07,20.27-4.75,2.18-13.08,2.06-13.08-32.19-11.8,5.78-6.16,10.65-11.42,15.64-16.67h-.14Z"/>
          <path class="cls-1" d="M951.07,876.66c1.15-9.11,3.6-17.96,15.26-17.96s14.11,9.5,14.62,18.73c.64,11.42-6.79,20.13-15.91,18.98-11.42-1.41-13.46-10-14.11-19.88l.12.12h.01Z"/>
          <path class="cls-1" d="M803.7,876.66c-1.41,10.13-3.46,19.62-15.01,19.88-11.28.12-15.01-8.34-15.14-18.21,0-10.13,2.69-19.5,15.14-19.5s13.08,10,15.01,17.83Z"/>
          <path class="cls-1" d="M824.98,875.26v-18.98c6.55,3.84,14.49,6.02,15.14,9.36,1.67,9.88-6.16,10.39-15.14,9.5v.12h0Z"/>
          <path class="cls-1" d="M424.03,523.94c4.87,3.21,10,6.67,15.14,10l2.18-2.57c-3.72-2.69-7.44-5.52-11.28-8.21l2.31-3.33c3.33,2.31,7.31,4.1,9.74,7.05,6.29,7.56,2.95,18.35-11.03,31.81-.26-5.39-.38-8.73-.64-13.72-5.78,2.18-11.42,4.23-18.09,6.67-.38-3.84-.64-7.7-1.15-12.83-2.83,1.67-4.87,3.07-7.05,4.36-5.13-5.13.89-15.91,16.55-28.22-.89,5.39-1.54,9.74-2.83,17.83,3.6-5.13,5.26-7.56,6.16-8.85h0Z"/>
          <path class="cls-1" d="M446.87,516.51c10.26,18.98,7.95,36.17-4.87,46.95-11.03,9.24-25.02,9.11-36.17.26-10.26-8.08-17.83-30.27-7.18-43.74.89,9.24.38,19.5,3.07,28.74,3.07,10.51,11.16,17.32,23.34,16.8,17.83-.89,26.55-19.12,21.81-48.99h0Z"/>
        </g>
      </g>
    </g>
  </g>
</svg>