<?xml version="1.0" encoding="UTF-8"?>
<svg id="Layer_2" data-name="Layer 2" xmlns="http://www.w3.org/2000/svg" viewBox="0 0 1114.45 106.14">
  <defs>
    <style>
      .cls-1 {
        fill: #fff;
      }
    </style>
  </defs>
  <g id="Layer_1-2" data-name="Layer 1">
    <g id="Layer_3" data-name="Layer 3">
      <g>
        <path class="cls-1" d="M1097.03,62.27c1.44-14.58-10.43-17.34-22.39-15.89-6.27.76-9.85,4.52-15.57,5.85l-4.97-11.36c4.97-3.95,11.41-7.12,17.68-8.34,21.86-4.25,40.38,3.08,42.28,27.21.4,5.02.8,42.77-.47,44.6-1.06,1.52-14.09,1.49-15.13,0-1.28-1.84.92-6.86-1.93-6.07-.86.24-.42,1.43-1.23,2-18.46,12.95-49.56,2.74-42.22-23.43,1.46-5.2,4.83-9.02,9.71-11.29,1.63-.76,9.46-3.27,10.73-3.27h23.51ZM1098.03,74.27h-23.5c-1.22,0-4.93,2.85-5.56,4.39-3.3,8.04,1.31,13.94,9.5,14.66,12.44,1.08,20.91-6.43,19.56-19.05Z"/>
        <path class="cls-1" d="M969.03,74.27h-53c2.66,16.18,20.25,20.53,33.71,14.21,1.95-.92,4.52-4.45,6.65-4.05,1.35.26,7.97,8.49,7.54,10.14-.49,1.87-5.73,5.46-7.59,6.51-21.5,12.13-52.97.65-56.22-25.39-7.24-58.02,74.89-59.01,68.92-1.42h0ZM954.03,63.27c-1.49-24.4-36.69-24.18-38,0h38Z"/>
        <path class="cls-1" d="M599.03,105.27h-15c-.45,0,.34-7.88-.01-8.99-1.57.17-1.53,2.3-2.93,3.55-17.1,15.31-53.25.93-41.96-24.96,2.7-6.19,12.88-12.6,19.4-12.6h24.5c.86-16.48-17.37-19.09-29.7-14.2-2.22.88-6.51,4.94-8.32,3.78-.69-.45-4.98-9.1-4.96-10.11.05-3.07,9.9-7.4,12.76-8.19,14.02-3.84,35.32-2.97,42.77,11.67.73,1.44,3.45,8.56,3.45,9.55,0,0,0,50.5,0,50.5ZM583.03,74.27h-23.5c-1.14,0-4.58,3.36-5.26,4.73-6.89,13.75,16.87,19.81,25.76,8.76,3.41-4.24,3.28-8.26,3.01-13.49h-.01Z"/>
        <path class="cls-1" d="M845.03,105.27h-15c-.4,0,.3-6.89,0-8-8.75,9.2-22.17,10.72-33.69,6.2-15.29-6-17.45-28.33-3.64-37.04,2.03-1.28,9.84-4.16,11.84-4.16h24.5c.55-17.78-18.98-19.19-31.71-13.21-2.13,1-3.69,4.47-6.32,2.76-.68-.44-5-9.14-4.98-10.1.08-3.62,13.47-8.28,16.95-9.01,10.57-2.21,27.23-1.33,35.05,7.06,1.93,2.08,7.01,11.53,7.01,13.99v51.5h-.01ZM829.03,74.27h-23.5c-1.14,0-4.58,3.36-5.26,4.73-6.89,13.75,16.87,19.81,25.76,8.76,3.41-4.24,3.28-8.26,3.01-13.49h-.01Z"/>
        <path class="cls-1" d="M479.19,68.82c0,20.4-16.54,36.94-36.94,36.94s-36.94-16.54-36.94-36.94,16.54-36.94,36.94-36.94,36.94,16.54,36.94,36.94ZM428.39,51.63c-13.71,13.71-4.3,43.43,17.69,39.18s21.46-42.33-1.54-44.54c-6.01-.58-11.85,1.06-16.15,5.36Z"/>
        <path class="cls-1" d="M422.03,25.27h-30v80h-17V25.27h-30V9.27h75.5c.11,0,1.5,1.39,1.5,1.5v14.5Z"/>
        <path class="cls-1" d="M877.03,16.27v17h18c-.3,2.16,1.02,14-1.5,14h-16.5v38.5c0,.25,2.65,3.62,3.05,3.95,3.14,2.55,11.25,2.35,14.45-.42,2.2,5.24,7.36,10.63,1.19,14.18-9.38,5.4-26.32,2.4-31.91-7.49s-1.05-46.98-2.78-48.72c-14.38,1.51-12.23-1.52-12.01-14,2.13-.2,12.01.89,12.01-1.49v-15.5h16Z"/>
        <path class="cls-1" d="M509.03,16.27v17h18v14h-18v34.5c0,.37,1.74,5.17,2.14,5.86,4.66,8.09,16.1,1.09,16.85,1.64,1.98,8.74,7.49,12.55-3.76,15.73-11.14,3.14-24.99-.4-29.45-12-.33-.85-1.77-5.85-1.77-6.23v-39.5h-11v-14h11v-17h16-.01Z"/>
        <rect class="cls-1" x="614.03" y="9.27" width="16" height="96"/>
        <path class="cls-1" d="M1016.03,31.27v16c-7.29-.21-15.99,1.94-19.85,8.65-.61,1.07-3.15,8.15-3.15,8.85v40.5h-16V32.27h15c.5,0-.76,8.8.5,10,6.1-7.88,13.99-9.95,23.5-11Z"/>
        <rect class="cls-1" x="1026.03" y="32.27" width="16" height="73"/>
        <circle class="cls-1" cx="1034.2" cy="10.17" r="10.17"/>
        <path class="cls-1" d="M694.03,9.27l33.5,63.01,33.5-63.01h14v94.5c0,2.27-16,2.27-16,0v-59.5l-27.48,49.01c-2.14,1.9-7.5,1.59-8.98-1.04-9.13-15.94-16.92-33.05-27.53-47.97v61h-15V9.27h14-.01Z"/>
        <g>
          <path class="cls-1" d="M271.03,105.27V36.77c0-2.2-6.6-9.5-8.5-9.5h-45.5v66.5c0,4.24-11.73,14.02-17,11.5V35.77c0-2.21-6.28-8.5-8.5-8.5h-45.5v65.5c0,.37-3.01,5.7-3.56,6.44-3.25,4.31-7.95,6.77-13.44,6.06V9.27h137.5c1.15,0,7.66,2.14,9.17,2.83,5.01,2.29,9.97,8.15,11.66,13.34,3.06,9.45,2.68,49.99,1.7,61.37-.88,10.17-6.97,19.26-18.04,18.46h0Z"/>
          <path class="cls-1" d="M123.03,10.27v17h-53v78c-8.78,2.04-18-7.09-18-15.5V27.27H13.53c-.44,0-5.97-2.59-6.84-3.16C1.95,21.01-.3,15.91.03,10.27h123Z"/>
        </g>
      </g>
    </g>
  </g>
</svg>