<?xml version="1.0" encoding="UTF-8"?>
<svg id="Layer_2" data-name="Layer 2" xmlns="http://www.w3.org/2000/svg" viewBox="0 0 2589.92 518.84">
  <defs>
    <style>
      .cls-1 {
        fill: #2a377f;
      }
    </style>
  </defs>
  <g id="Layer_1-2" data-name="Layer 1">
    <g>
      <g>
        <g>
          <path class="cls-1" d="M1105.78,113.47c4.41,1.15,2.97,14.3,2.25,18.15-3.44,18.58-9.58,38.88-13.7,57.83-3.78,17.38-6.6,35.06-10.34,52.44-1.82,2.54-32.65,2.82-36.7,1.62-7.29-2.17-2.51-10.81-2.65-16.35-.06-2.23.35-2.99-2.46-2.44-3.97.79-15.25,10.41-20.39,13.01-49.21,24.86-119.38,15.89-137.01-43.15-20.72-69.36,23.94-168.36,95.8-188.84,39.46-11.25,102.12-7.95,126.01,30.63,5.33,8.6,12.48,34.92,9.32,44.29-2.06,6.12-46.5,5.47-52.73,2.29-4.97-2.53-3.45-10.94-5.18-15.5-.46-1.21-7.97-9.82-9.17-10.65-8.46-5.81-27.94-11.51-38.04-9.73-52.33,9.25-81.53,76.08-70.71,124.01,1.75,7.75,11.64,22.07,18.83,25.69,35.73,18,74.41-3.03,90.45-36.41-13.63-4.23-32.55-.06-45.26-2.42-10.92-2.03-3.46-13.45-2.56-18.37.75-4.07,2.24-26.1,7.28-26.1h96.98Z"/>
          <path class="cls-1" d="M843.73,119.27c-3.05,2.73-13.48,6.09-13.58,11.14-.05,2.84,4.47,4.3,6.54,7.32,16.15,23.62-11.23,68.24-5.18,92.27.2.81,10.57,6.23,2.3,12.12-3.56,2.53-42.27,2.41-49.24,1.78-13.07-1.17-11.18-8.11-10.23-19.92.97-12.08,13.39-56.29,5.92-64.01-2.07-2.14-9.81-4.96-13-5.27-18.05-1.76-39.41,1.22-57.8.45l-18.59,85.52c-2.14,2.35-4.96,2.84-7.95,3.18-6.77.77-38.65.95-43.82-.75-4.08-1.34-5.34-3.34-4.42-7.63,13.71-64.22,27.79-129.99,42.49-194.5,3.2-14.02.32-34.04,18.37-35.69,27.87-2.54,81.71-2.28,109.75.1s61.12,13.42,64.39,45.3c2.68,26.07-6.56,51.23-25.95,68.58ZM808.8,61.47c-3.07-3.91-11.32-6.29-16.23-6.8-6.89-.71-57.97-.81-61.19.76-4.59,2.24-2.5,8.42-3.56,12.34-2.3,8.51-3.09,13.98-4.76,22.26-1.33,6.61-9.33,16.34,1.55,18.3,14.1,2.53,54.47,1.02,67.57-4.82,4.49-2,14.72-10.73,16.68-15.11,2.43-5.44,3.6-22.27-.06-26.93Z"/>
          <path class="cls-1" d="M1336.56,21.84c58.3,48.95,24.24,161.27-29.78,202.01-65.69,49.54-175.78,32.5-179.6-63.42-2.54-63.65,36.72-133.9,98.93-153.97,34.25-11.05,82.03-8.48,110.45,15.38ZM1296.9,61.46c-4.15-4.59-24.27-13.74-30.65-14.67-16.95-2.46-42.77,11.99-54.19,24.31-27.03,29.12-45.77,102.07-3.66,125.74,46.84,26.34,96.95-33.1,100.14-76.16.67-9,.85-25.96-.48-34.63-.73-4.74-8.19-21.3-11.16-24.59Z"/>
          <path class="cls-1" d="M529.07,5.74c7.14-1.29,42.04-1.64,48.87-.34,12.11,2.31,9.06,23.11,10.45,32.48,9.3,62.64,22.17,127.62,26.96,190.83.74,9.71,7.91,13.92-7.1,15.2-7.07.6-45.61.78-49.24-1.78-4.62-3.26-1.85-12.75-2.53-18.14-1.07-8.43-4.17-16.36-3.37-25.25l-2.39-2.38c-22.77,1.34-49.07-2.54-71.41-.31-2.66.27-5.32-.22-7.17,2.37-7.27,11.32-13.61,30.44-21.5,40.5-2.79,3.56-4.91,4.43-9.36,4.95-7.61.88-45.29.88-50.1-2.43-2.8-1.93-.68-1.72-.07-3.19,6.58-15.88,17.75-30.48,26.13-45.45,31.76-56.73,62.73-114.51,96.63-170.45,4.37-7.21,3.74-14.53,15.19-16.6ZM501.66,150.03c6.22,1.75,32.53,0,41.33,0s1.43-23.6.81-29.43c-1.34-12.64-1.81-25.58-3.11-38.22-.25-2.41-.18-3.94-2.47-5.45l-38.82,69.3c-.62,1.31,1.48,3.58,2.25,3.8Z"/>
          <path class="cls-1" d="M361.77,88.03c-4.96-1.57-7.88-24.83-15-31.1-6.57-5.78-26.81-11.57-35.44-9.79-36.32,7.51-63.76,53.95-66.47,89.31-2.32,30.33-1.75,62.93,35.76,66.1,24.55,2.08,42.82-9.14,54.68-29.72,2.99-5.2.96-11.08,9.33-12.93,6.32-1.39,37.24-1.3,44.07-.24,2.96.46,7.1,1.82,7.22,5.36.05,1.58-8.41,20.82-9.91,23.6-14.86,27.65-41.96,51.17-73.25,58.63-8.88,2.12-16.29.11-24.03,1.41-16.33,2.74-27.57,2.48-44.5-1.77-94.96-23.84-60.28-166.2-4.09-215.34,44.45-38.87,141.35-49.72,168.05,13.22,2.86,6.75,10.46,43.23,1.28,43.23s-41.97,1.82-47.69,0Z"/>
        </g>
        <g>
          <path class="cls-1" d="M2421.58,356.96c-2.55,12.06,3.53,43.19-2.69,52.17-5.23,7.56-42.53,19.59-52.43,25.36-16.56-5.73-31.84-15.55-48.16-21.68-3.4-1.28-12.62-4.96-15.36-5.31-13.47-1.7-32.7,13.97-46.9,14.45-2.16,2.2,2.95,48.49-1.58,56.46-.96,1.68-5.67,5.59-7.6,6.71-16.34,9.51-41.94,13.74-58.92,23.82-16.05,1.15-9.56-9.9-9.87-17.9-.94-24.62.39-48.4.06-73.19-.12-9.37-4.58-18.75,1.66-28.41l76.14-31.93c-.07-2.05-31.75-17.3-36.16-19.45-11.42-5.58-28.04-11-38.41-17.23-6.78-4.07-6.79-14.53-.06-17.43,5.58-2.4,17.65,10.29,25.21,9.78l71.04,35.57c2.47.43,4.74.02,7.1-.7,14.18-4.31,34.4-16.21,49.16-22.39,2.02-.85,6.07-.49,6.41-.75.25-.19-1.68-5.81-1.91-6.02-.76-.7-4.86-.48-7.15-1.56-6.65-3.14-12.84-7.75-20.01-9.91-38.71-22.12-88.37-38.85-127.57-61.92-6.91-4.07-10.93-12.52-3.17-17.68,4.86-3.23,12.43,5.18,16.85,7.18,50.07,22.71,104.42,54.42,154.26,74.67,2.07.84,9.16,3.69,10.57,3.86,2.35.28,38.04-14.83,44.1-17.23,2.04-.81,4.37-.95,4-3.96l-18.06-10.56-209.14-100.87c-7.9-3.88-9.86-16.38.59-16.64,3.99-.1,22.94,9.23,28.22,11.68,73.74,34.19,145.23,72.96,218.98,107.03,7.69,1.63,16.59-5.62,23.6-8.45,3.74-1.51,31.99-10.67,32.08-12.39.01-.24-1.79-3.64-2.72-4.01l-27.84-11.51c-71.8-37.14-144.31-70.3-216.94-105.78-16.85-8.23-36.03-16.11-52.41-25.49-5.54-3.17-11.1-6.24-10.09-13.7,1.98-14.65,26.49,3.54,33.05,6.64,89.33,42.19,178.41,86.28,267.28,128.58,6.71,3.19,21.51,12.71,27.17,14.22,8.89,2.36,20.34-6.29,28.62-9.66,4.88-1.98,12.81-3.43,17.86-5.99,2.69-1.36,5.05-3.57,7.62-5.11-20.47-11.4-42.36-20.12-63.41-30.4-81.34-39.74-162.87-80.3-243.92-120.14-20.33-9.99-43.18-17.6-62.58-29.63-10.7-6.63-17.74-13.05-5.3-23.41l402.92,198.11c1.88,3.18,2.2,6.6,2.53,10.19,2.11,23,2.21,71.02.02,93.94-.45,4.73-1.43,9.02-4.99,12.5l-59.5,24.88c-22.22-3.46-40.95-18.4-62.11-25.44-13.73,3.93-26.58,11.27-40.14,16.06ZM2567.57,250.19l-373.6,158.18v75.51c14.46-2.27,27.29-11.72,41.5-15.27,4.21-5.87-.51-42,1.45-52.26,1.86-9.73,13.32-9.81,19.37-12.43,19.02-8.22,38.18-16.25,57.2-23.88,16.54-6.64,33.11-13.39,49.36-20.72,3.43-2.72,13.93,3.93,13.93,6.12v39.74c0,.23,1.93,4.19,2.38,3.97,3.15-5.8,16.81-5.62,20.01-10.59,5.53-8.58-2.9-43.31,3.71-51.54,5.74-7.14,41.75-20.89,52.54-25.36,6.56-2.72,15.73-4.34,21.85-6.77,10.77-4.27,25.27-13.45,35.91-16.58,5.09-1.49,16.23-2.08,16.23,5.12v38.95c12.77-2.5,26.95-10.14,38.15-16.69v-75.51ZM2511.92,321.72c-5.41-1.31-8.29,2.67-12.39,4.3-3.68,1.45-12.2.74-9.85,6.03.54,1.22,18.95,9.14,22.24,10.33v-20.66ZM2327.51,399.62c9.93-.98,18.76,5.99,27.84,9.51,5.01-3.52.88-8.95.77-13.47-.08-3.27,4.58-12.08-2.34-11.97-1.72.03-15.03,7.66-18.24,8.87-5.97,2.24-9.39-2.62-8.03,7.07Z"/>
          <path class="cls-1" d="M1967.43,5.36c5.94,1.8,3.12,18.08,2.26,22.92-1.42,7.96-3.38,16.93-5.03,25.17-2.44,12.11-8.83,24.97-7.54,37.75,3.57-1.82,5.71-5.45,8.73-7.95,8.97-7.44,18.73-15.17,27.84-23.03,20.42-17.63,40.02-36.58,61.64-53.23,5.27-2.66,45.4-2.38,53.66-1.7s16.81,2.89,8.54,11.85c-7.54,8.17-23.28,17.44-31.96,24.81-21.44,18.21-43.32,36.93-64.5,55.62-5.84,5.15-11.75,3.4-7.07,15.45,22.35,41.88,45.99,83.27,65.31,126.66-.33,1.42-2.07,2.36-3.36,2.96-3.85,1.78-62.22,2.35-64.9.5l-48.36-96.01c-1.52-.11-23.23,17.4-23.89,18.77-1.73,3.57-.3,8.95-1.13,13.18-1.45,7.39-3.07,14.9-4.61,22.42-2.77,13.56-6.87,26.91-9.6,40.47-1.68,2.75-50,3.3-53.83-.49-4.19-4.14.54-7.87,1.25-11.54,9.2-47.37,20.08-94.23,30.18-141.51,4.76-22.28,7.53-50.79,13.89-71.96,1.36-4.51,3.74-11.11,9.56-11.11,8.6,0,37.22-1.73,42.92,0Z"/>
          <path class="cls-1" d="M1765.18,43.13c.22.49,2.59.6,3.25,2.29l6.66,25.09,4.79,2.86,51.75-65.51c6.18-3.72,39.58-3.29,48.43-2.56,7.89.65,15.99,2.43,10.35,12.08-3.02,5.16-16.42,18.67-21.47,24.62-2.92,3.45-5.9,6.85-8.81,10.26-19.74,23.18-40.84,45.21-58.43,70.16,6.72,18.99,15.38,37.26,22.99,55.88,7.05,17.23,13.92,34.94,20.43,52.7.66,1.79,6.99,7.17,3.72,11.08-1.86,2.23-51.61,2.64-57.95,1.81-12.56-1.64-17.29-31.97-20.89-42.7-3.25-9.68-7-15.86-8.45-26.3-.98-7.01-14.08,8.93-15.11,10.07-12.21,13.47-25.53,30.95-37.3,45.37-2.21,2.7-5.92,10.74-6.81,11.47-4.03,3.33-59.78,3.17-64.78-.37-2.92-2.1-.29-2.26.81-3.97,11.03-17.08,28.79-35.78,42.1-51.7,18.02-21.56,37.12-41.33,53.84-63.95l-.42-5.23c-11.87-32.65-31.3-65.5-41.54-98.44-3.04-9.77.69-12.09,9.54-12.88,7.59-.68,46.15-.83,50.69,1.92,3.64,2.21,9.63,21.23,11.52,26.63,1.04,2.98-.05,6.65,1.1,9.29Z"/>
          <path class="cls-1" d="M1676.51,5.36c9.47,2.65.35,21.24-.71,26.32-1.75,8.41,2.27,17.43-8.11,22.08l-66.68.9-39.09,187.76c-2.83,2.01-40.15,2.12-46,1.44-3.52-.41-8.29-1.27-8.75-5.58l38.21-178.2c.67-1.7-1.18-5.44-2.4-5.44h-60.41c-.4,0-4.48-5.54-4.75-6.44-2.27-7.7,8.02-27.75,7.48-36.94.33-1.95,5.84-5.91,6.81-5.91h184.41Z"/>
        </g>
      </g>
      <g>
        <rect class="cls-1" y="312.19" width="2097.09" height="33.48"/>
        <path class="cls-1" d="M771.93,491.83c-11.37-3.18,7.03-37.82-1.9-42.61-3.48-1.87-29.98-3.06-32.07-1.7-4.66,3.03-5.03,40.4-11.32,43.53-3.94,1.96-26.92,2.09-28.5-3.45l23.71-111.04c1.19-5.14,5.83-5.23,10.26-5.63,14.63-1.33,53.91-1.46,66.66,3.44,13.73,5.28,20.26,15.75,18.33,30.68-.85,6.58-6.98,17.43-10.9,22.41-1.61,2.04-5.37,2.48-6.24,5.02-1.54,4.49,2.7,9.95,3.08,15.56.71,10.34-4.58,20.03-4.71,28.85-.06,4.16,5.82,14.94-2.55,14.94-5.55,0-19.84,1.12-23.85,0ZM746.49,423.47c3.61,1.13,19.98,0,25.44,0,.56,0,6.57-5.78,9.86-5.25,6.44-9.02,8.72-18.95-4.99-20.29-4.09-.4-25.69-.45-27.94.87-3.25,1.91-7.03,23.2-2.37,24.66Z"/>
        <path class="cls-1" d="M1512.76,491.83c-11.17-3.16,7.18-34.77-2.47-42.04-4.19-3.16-28.02-3.94-30.97-.93-6.57,6.69-4.38,38.62-11.87,42.18-3.9,1.86-25.57,1.78-27.89-2.31l23.46-113.4c.46-1.7,1.73-2.46,3.2-3.16,5.06-2.41,53.6-1.72,61.98-.72,29.8,3.55,38.85,27.32,22.29,51.61-2.63,3.86-9.74,8.05-10,10.74-.33,3.47,2.71,7.52,3.12,11.25,1.55,14.08-4.73,21.17-4.62,31.67.03,3.09,5.19,15.1-.81,15.1s-21.27,1.18-25.44,0ZM1485.73,423.47c4.08,1.21,21.1,0,27.03,0,.59,0,9.89-4.98,10.43-5.47,4.01-3.69,6.49-12.16,2.42-16.93-5.39-6.3-28.68-1.6-37.48-3.03,2.2,5.5-8.41,23.64-2.4,25.43Z"/>
        <path class="cls-1" d="M1803.19,431.71c-1.99,3.41,2.32,8.17,2.8,11.72,1.54,11.56-2.08,17.31-3.1,26.93-.59,5.5,2.52,18.87-1.58,20.65s-26.87,1.94-29.49-2.35c-4.14-6.78,12-33.06-.28-39.4-4.66-2.41-26.92-3.45-29.91-.4-6.28,6.42-4.11,38.49-11.87,42.18-3.93,1.87-25.55,1.77-27.94-2.33,6.06-21.62,9.04-43.97,13.79-65.87.53-2.45,2.37-4.21,2.89-6.65,2.3-10.89,3.07-29.55,6.89-39.22,1.65-4.19,5.79-5.52,9.9-5.99,13.99-1.62,51.27-1.12,64.47,2.37,24.86,6.58,26.19,32.08,12.39,50.64-2.62,3.52-8.66,7.22-8.96,7.73ZM1747.25,423.47h27.82c.59,0,9.89-4.98,10.43-5.47,4.01-3.69,6.49-12.16,2.42-16.93-5.41-6.32-28.69-1.57-37.5-3.05l-3.17,25.45Z"/>
        <path class="cls-1" d="M893.14,371.4c11.9-2.23,47.72-1.21,59.55,1.66,14.57,3.54,22.14,9.94,26.23,24.64,8.75,31.41-12.11,83.94-45.91,93.05-9.19,2.48-51.97,2.33-62.55,1.1-2.6-.3-7.81-1.31-8.46-4.16l23.86-112.46c.9-2.59,4.74-3.37,7.28-3.84ZM913.63,398.25c-1.28.43-2.08,1.05-2.33,2.43.47,9.17-14.98,60.55-12.31,64.22,9.35,3.05,24.87,2.37,33.53-3.26,14.41-9.37,28.9-59.7,4.66-63.52-3.47-.55-20.93-.75-23.54.13Z"/>
        <path class="cls-1" d="M240.68,486.53c-7.21-5.76-16.26-29.11-6.9-33.65,2.71-1.32,19.69-1.41,22.75-.48,5.86,1.78,3.64,15.51,17.75,17.21,9.46,1.14,28.99-1.33,29.14-13.86s-47.49-10.15-57.96-28.85,3.83-44.49,22.2-53.01c24.17-11.22,75.93-7.97,72.63,27.98-1.01,10.96-18.01,10.81-25.88,8.55-6.08-1.75-4.87-8.65-7.49-11.59-10.49-11.71-39.09-.85-32.62,11.95.83,1.64,12.19,6.7,14.77,7.49,6.97,2.16,18.33,2.81,25.82,5.97,22.58,9.53,24,34.84,9.48,52.45-17.09,20.72-62.7,26.59-83.68,9.84Z"/>
        <path class="cls-1" d="M552.54,491.83c-8.26-1.39-2.07-9.56-1.22-13.93,6.56-33.68,13-67.35,19.85-100.97,1.56-4.81,8.65-5.57,13.1-5.97,17.32-1.59,49.39-1.37,66.89,0,5.77.45,11.55.42,11.75,7.3.18,6.14-1.09,17.04-7.75,19.07-12.57,3.82-37.53-1.23-51.82.65-9.25,1.21-10.04,16.34-5.45,18.43,9.4.29,47.43-5.2,50.67,4.98,1.73,5.45-2.87,19.75-10.21,21.14-8.9,1.69-46.06-2.17-50.15.73l-4.68,17.72c-.67,1.7,1.18,5.44,2.4,5.44h55.64c4.72,0,4.96,25.44-3.18,25.44h-85.85Z"/>
        <path class="cls-1" d="M1028.67,398.03c-.72.61-3.29,16.65-.02,18.41,1.19.92,2.03-.92,2.4-.92h44.51c6.27,0,5.85,25.45-6.29,27.1-9.61,1.3-43.84-2.48-49.19,1.35-1.23.88-6.74,22.43-1.76,22.43h54.05c4.52,0,3.1,19.78,2.45,22.76-.21.94-3.52,2.67-4.04,2.67h-87.44c-1.15,0-4.88-4.99-4-7.01,10.66-36.71,16.12-74.38,25.44-111.44,3.24-1.69,6.69-2.14,10.29-2.43,23.76-1.94,50.4,1.3,74.46.38,9.38,2.75,2.41,26.71-2.86,26.71-7.85,0-55.81-1.87-58.03,0Z"/>
        <path class="cls-1" d="M2075.54,466.39c.74.22,3.25,3.23,3.81,4.24,2.1,3.76.27,21.01-5.74,20.78-26-1.37-56.94,3.27-82.36.45-2.31-.26-7.85-1.31-8.24-3.93l25.81-113.7c2.15-2.44,4.82-2.9,7.87-3.26,8.06-.93,75.59-1.54,78.82.72,3.64,2.55,2.85,22.27-4.91,25.5-10.91,4.54-42.89-1.85-56.19,1.04-3.85,1.31-5.42,18.25-1.57,19,2.41.47,7.37-1.71,10.84-1.79,7.66-.17,34-1.09,39.03,2.45,1.79,1.26.19,17.76-.81,19.89-1.11,2.38-5.46,4.24-8.05,4.67-10.67,1.75-41.52-2.56-48.41.87-3.2,1.59-8.75,23.07-3.96,23.07h54.05Z"/>
        <path class="cls-1" d="M414.23,491.83c-6.22-1.74-2.69-15.07-5.15-20.29-3.41-7.26-15.91-2.31-22.05-2.12-5,.15-9.13-3.23-14.91-.6-6.27,2.85-9.38,20.97-17.06,22.67-4.37.97-26.11,1.77-27.36-3.79l62.78-111.82c3.75-7.74,35.18-6.22,37.05-.68,1.19,3.52-.32,9.59.38,13.93,3.63,22.35,6.25,44.47,9.5,66.81.56,3.89,9.35,35.89,2.26,35.89-5.85,0-21.21,1.18-25.44,0ZM386.4,442.54c27.37,4.08,17.35-11.92,15.88-30.2-4.59,2.73-18.06,27.95-15.88,30.2Z"/>
        <path class="cls-1" d="M1352.19,491.83c-7.67-2.15.23-19.04-8.78-23.02-3.37-1.49-29.87-1.56-33.32-.01-6.23,2.79-9.39,20.98-17.07,22.68-4.57,1.01-26.3,1.64-27.45-3.74l62.26-109.29c4.52-9.65,19.66-8.63,28.97-7.29,13.15,1.9,7.47,6.95,9.06,16.38,3.97,23.5,6.22,46.57,9.47,70.02.77,5.54,4.2,12.24,4.65,19.18.18,2.74.93,15.08-2.35,15.08-5.85,0-21.21,1.18-25.44,0ZM1324.37,442.54c4.06-.64,16.23,1.6,18.39-1.47,1.27-1.81-1.34-27.85-2.5-28.72-4.45,2.45-18.02,28-15.88,30.19Z"/>
        <path class="cls-1" d="M1982.26,415.3c-.94.55-20-1.77-21.6-2.43-5.54-2.28-5.33-19.99-21.76-19.67-26.03.51-42.02,40.73-37.11,62.52,3.91,17.37,30.38,17.57,41.03,5.13,2.57-3,5.71-12.16,8.98-13.28,2.34-.8,15.92-.75,18.77-.22,16.15,3.02-5.71,31.26-12.67,36.52-18.16,13.7-47.29,16.42-67.48,5.48-31.76-17.21-17.48-74.47.81-97.59,20.04-25.33,70.88-36.22,90.41-6.36,3.06,4.68,6.61,15.88,5.71,21.27-.17.99-4.66,8.36-5.09,8.61Z"/>
        <path class="cls-1" d="M1624.38,371.35c8.37-1.85,42.48-1.28,52.11-.33,27.3,2.71,33.37,22.15,27.4,46.45-2.89,11.77-13.53,26.69-25.44,30.2-12.14,3.58-31.09.36-44.08,3.61-8.83,7.82-3.32,38.27-15.12,40.52-4.24.81-20.67.87-23.17-2.2-3.9-4.79.71-7.85,1.37-11.66,5.87-33.87,13.72-67.16,19.85-100.97.98-2.87,4.2-4.98,7.1-5.62ZM1637.56,423.47h26.23c.53,0,9.18-4.37,9.53-4.78,2-2.29,4.58-11,3.16-14.21-5.12-11.53-21.41-4.94-32.34-6.23l-6.58,25.22Z"/>
        <path class="cls-1" d="M539.82,418.7c9.17,1.52,4.41,22.17-.79,24.64-8.53,4.05-44.81-3.03-49.45,3.02-4.1,7.91-6.01,41.56-12.55,44.68-3.78,1.8-27.37,2.04-28.15-3.11l25.81-113.7c2.17-2.58,7.76-3.02,11.02-3.29,13.02-1.07,58.58-2,69.66.42,10.69,2.34,4.69,25.18-2.86,26.64-9,1.74-49.38-2.04-53,.25-1.48.93-3.38,17.2-3.4,20.45,13.28,1.55,31.05-2.09,43.72,0Z"/>
        <path class="cls-1" d="M1267.93,418.7c7.33,2.08.98,22.66-2.36,24.67-6.65,4-43.57-2.62-48.56,2.31-1.19,5.03-4.46,12.29-5.42,16.83-1.26,5.96-.85,25.75-6.43,28.54-4.24,2.12-28.56,2.44-28.66-4.73l25.44-112.94c2.55-2.18,5.56-2.17,8.68-2.45,13.05-1.16,61.75-2,72.85.43,10.38,2.27,4.27,8.23,3.09,13.52-1.73,7.81,2.38,11.86-9.07,13.18-7.57.87-49.57-1.52-51.53.14l-3.34,20.5c11.71,2.14,35.19-2.87,45.31,0Z"/>
        <path class="cls-1" d="M845.6,489.98c-1.68,2.71-30.37,3.67-31.17-2.07l25.36-112.63c3.21-6.61,26.49-5.53,29.15-1.11,1.85,3.06-5.6,34.47-6.94,40.81-3.32,15.7-7.8,32.03-11.22,47.6-1.98,9.03-3.01,18.4-5.18,27.4Z"/>
        <path class="cls-1" d="M1391.94,491.83c-.48-.14-2.88-2.54-3.21-3.22-1.94-4.1,5.51-26.54,6.78-32.95,4.38-22.04,8.87-43.32,14.3-65.19,1.63-6.54-.98-17.18,7.91-19.12,4.69-1.02,19.7-1.74,21.91,2.82,4.08,8.39-6.15,38.37-8.34,48.91-4.03,19.43-6.71,43.65-12.3,62.42-.44,1.47-1.79,6.32-3.22,6.32-5.51,0-19.9,1.12-23.85,0Z"/>
        <path class="cls-1" d="M1850.13,371.35c3.66-.81,16.49-1.04,19.54.45,8.37,4.08-.23,17.5-1.24,22.63-2.92,14.94-6.32,29.61-9.5,44.55-3.49,16.39-5,33.37-9.18,49.64-2.55,4.94-24.99,4.55-27.96.95-3.47-4.21,3.48-23.44,4.56-29.12,5.02-26.31,8.72-54.06,15.38-80,1.17-4.55,3.55-8.02,8.4-9.09Z"/>
        <path class="cls-1" d="M1095.45,491.84c-2.71.41-10.37-1.08-10.76-3.93-.16-1.12,5.94-20.76,6.73-21.56,2.64-2.69,27.17-4.23,27.87,4.06.67,7.92-8.11,32.76-13.63,38.8-4.29,4.7-21.17,14.75-25.36,6.48-5.59-11.02,18.51-12.05,15.15-23.85Z"/>
      </g>
    </g>
  </g>
</svg>